<mxfile host="app.diagrams.net" modified="2021-09-22T12:01:09.400Z" agent="5.0 (Macintosh; Intel Mac OS X 10_15_7) AppleWebKit/537.36 (KHTML, like Gecko) Chrome/94.0.4606.30 Safari/537.36" etag="6Xt-TW5CV_KaX_IjBL5G" version="15.1.0" type="github">
  <diagram id="LkdizwOM0k1PNKCTk9f9" name="Page-1">
    <mxGraphModel dx="2777" dy="3862" grid="0" gridSize="10" guides="1" tooltips="1" connect="1" arrows="1" fold="1" page="0" pageScale="1" pageWidth="850" pageHeight="1100" math="0" shadow="0">
      <root>
        <mxCell id="0" />
        <mxCell id="1" parent="0" />
        <mxCell id="cJn1-5kdTX8YehVj2-MU-40" value="" style="rounded=0;whiteSpace=wrap;html=1;" vertex="1" parent="1">
          <mxGeometry x="920.13" y="-1990" width="270" height="320" as="geometry" />
        </mxCell>
        <mxCell id="cJn1-5kdTX8YehVj2-MU-31" value="" style="rounded=0;whiteSpace=wrap;html=1;" vertex="1" parent="1">
          <mxGeometry x="957.88" y="-1960" width="192.25" height="130" as="geometry" />
        </mxCell>
        <mxCell id="sGh2FiVioXZhZlTfB1Zx-24" value="" style="rounded=0;whiteSpace=wrap;html=1;" parent="1" vertex="1">
          <mxGeometry x="620" y="-210" width="470" height="430" as="geometry" />
        </mxCell>
        <mxCell id="rko0CJg5x_IpnPn0Ixie-3" value="" style="shape=umlLifeline;participant=umlActor;perimeter=lifelinePerimeter;whiteSpace=wrap;html=1;container=1;collapsible=0;recursiveResize=0;verticalAlign=top;spacingTop=36;outlineConnect=0;" parent="1" vertex="1">
          <mxGeometry x="80" y="470" width="20" height="2570" as="geometry" />
        </mxCell>
        <mxCell id="rko0CJg5x_IpnPn0Ixie-10" value="" style="html=1;points=[];perimeter=orthogonalPerimeter;" parent="rko0CJg5x_IpnPn0Ixie-3" vertex="1">
          <mxGeometry x="5" y="60" width="10" height="2480" as="geometry" />
        </mxCell>
        <mxCell id="rko0CJg5x_IpnPn0Ixie-4" value="webcast.room.api" style="shape=umlLifeline;perimeter=lifelinePerimeter;whiteSpace=wrap;html=1;container=1;collapsible=0;recursiveResize=0;outlineConnect=0;" parent="1" vertex="1">
          <mxGeometry x="290" y="480" width="135" height="2560" as="geometry" />
        </mxCell>
        <mxCell id="rko0CJg5x_IpnPn0Ixie-12" value="" style="html=1;points=[];perimeter=orthogonalPerimeter;" parent="rko0CJg5x_IpnPn0Ixie-4" vertex="1">
          <mxGeometry x="62.5" y="60" width="10" height="2470" as="geometry" />
        </mxCell>
        <mxCell id="rko0CJg5x_IpnPn0Ixie-5" value="webcast.user.base" style="shape=umlLifeline;perimeter=lifelinePerimeter;whiteSpace=wrap;html=1;container=1;collapsible=0;recursiveResize=0;outlineConnect=0;" parent="1" vertex="1">
          <mxGeometry x="960" y="470" width="100" height="460" as="geometry" />
        </mxCell>
        <mxCell id="rko0CJg5x_IpnPn0Ixie-6" value="" style="html=1;points=[];perimeter=orthogonalPerimeter;" parent="rko0CJg5x_IpnPn0Ixie-5" vertex="1">
          <mxGeometry x="45" y="80" width="10" height="80" as="geometry" />
        </mxCell>
        <mxCell id="rko0CJg5x_IpnPn0Ixie-7" value="MultiGetUser(liveID, appID, userID)" style="html=1;verticalAlign=bottom;endArrow=block;entryX=0;entryY=0;" parent="1" source="rko0CJg5x_IpnPn0Ixie-12" target="rko0CJg5x_IpnPn0Ixie-6" edge="1">
          <mxGeometry relative="1" as="geometry">
            <mxPoint x="515" y="550" as="sourcePoint" />
          </mxGeometry>
        </mxCell>
        <mxCell id="rko0CJg5x_IpnPn0Ixie-13" value="Enter" style="html=1;verticalAlign=bottom;endArrow=block;entryX=0;entryY=0;" parent="1" source="rko0CJg5x_IpnPn0Ixie-10" target="rko0CJg5x_IpnPn0Ixie-12" edge="1">
          <mxGeometry relative="1" as="geometry">
            <mxPoint x="265" y="540" as="sourcePoint" />
          </mxGeometry>
        </mxCell>
        <mxCell id="rko0CJg5x_IpnPn0Ixie-14" value="return" style="html=1;verticalAlign=bottom;endArrow=open;dashed=1;endSize=8;exitX=0;exitY=0.95;" parent="1" source="rko0CJg5x_IpnPn0Ixie-12" target="rko0CJg5x_IpnPn0Ixie-10" edge="1">
          <mxGeometry relative="1" as="geometry">
            <mxPoint x="265" y="616" as="targetPoint" />
          </mxGeometry>
        </mxCell>
        <mxCell id="rko0CJg5x_IpnPn0Ixie-8" value="UserStruct" style="html=1;verticalAlign=bottom;endArrow=open;dashed=1;endSize=8;exitX=0;exitY=0.95;" parent="1" source="rko0CJg5x_IpnPn0Ixie-6" target="rko0CJg5x_IpnPn0Ixie-12" edge="1">
          <mxGeometry relative="1" as="geometry">
            <mxPoint x="344" y="626" as="targetPoint" />
          </mxGeometry>
        </mxCell>
        <mxCell id="rko0CJg5x_IpnPn0Ixie-22" value="" style="html=1;points=[];perimeter=orthogonalPerimeter;" parent="1" vertex="1">
          <mxGeometry x="602.5" y="955" width="10" height="80" as="geometry" />
        </mxCell>
        <mxCell id="rko0CJg5x_IpnPn0Ixie-23" value="liveID Match AppID" style="html=1;verticalAlign=bottom;endArrow=block;entryX=0;entryY=0;" parent="1" target="rko0CJg5x_IpnPn0Ixie-22" edge="1">
          <mxGeometry relative="1" as="geometry">
            <mxPoint x="505" y="955" as="sourcePoint" />
          </mxGeometry>
        </mxCell>
        <mxCell id="rko0CJg5x_IpnPn0Ixie-24" value="return" style="html=1;verticalAlign=bottom;endArrow=open;dashed=1;endSize=8;exitX=0;exitY=0.95;" parent="1" source="rko0CJg5x_IpnPn0Ixie-22" edge="1">
          <mxGeometry relative="1" as="geometry">
            <mxPoint x="505" y="1031" as="targetPoint" />
          </mxGeometry>
        </mxCell>
        <mxCell id="rko0CJg5x_IpnPn0Ixie-26" value="" style="html=1;points=[];perimeter=orthogonalPerimeter;" parent="1" vertex="1">
          <mxGeometry x="495" y="910" width="10" height="500" as="geometry" />
        </mxCell>
        <mxCell id="rko0CJg5x_IpnPn0Ixie-27" value="PackParameter" style="html=1;verticalAlign=bottom;endArrow=block;entryX=0;entryY=0;" parent="1" source="rko0CJg5x_IpnPn0Ixie-12" target="rko0CJg5x_IpnPn0Ixie-26" edge="1">
          <mxGeometry relative="1" as="geometry">
            <mxPoint x="387.5" y="910.0000000000018" as="sourcePoint" />
          </mxGeometry>
        </mxCell>
        <mxCell id="rko0CJg5x_IpnPn0Ixie-28" value="enter_sdk.Parameter" style="html=1;verticalAlign=bottom;endArrow=open;dashed=1;endSize=8;exitX=0;exitY=0.95;" parent="1" source="rko0CJg5x_IpnPn0Ixie-26" target="rko0CJg5x_IpnPn0Ixie-12" edge="1">
          <mxGeometry relative="1" as="geometry">
            <mxPoint x="387.5" y="1384.9999999999982" as="targetPoint" />
          </mxGeometry>
        </mxCell>
        <mxCell id="rko0CJg5x_IpnPn0Ixie-25" value="liveID" style="text;html=1;strokeColor=#6c8ebf;fillColor=#dae8fc;align=center;verticalAlign=middle;whiteSpace=wrap;rounded=0;" parent="1" vertex="1">
          <mxGeometry x="527.5" y="905" width="40" height="20" as="geometry" />
        </mxCell>
        <mxCell id="rko0CJg5x_IpnPn0Ixie-29" value="" style="html=1;points=[];perimeter=orthogonalPerimeter;" parent="1" vertex="1">
          <mxGeometry x="602.5" y="1090" width="10" height="80" as="geometry" />
        </mxCell>
        <mxCell id="rko0CJg5x_IpnPn0Ixie-30" value="RoomID" style="html=1;verticalAlign=bottom;endArrow=block;entryX=0;entryY=0;" parent="1" target="rko0CJg5x_IpnPn0Ixie-29" edge="1">
          <mxGeometry relative="1" as="geometry">
            <mxPoint x="505" y="1090" as="sourcePoint" />
          </mxGeometry>
        </mxCell>
        <mxCell id="rko0CJg5x_IpnPn0Ixie-31" value="FakeRoomID" style="html=1;verticalAlign=bottom;endArrow=open;dashed=1;endSize=8;exitX=0;exitY=0.95;" parent="1" source="rko0CJg5x_IpnPn0Ixie-29" edge="1">
          <mxGeometry relative="1" as="geometry">
            <mxPoint x="505" y="1166" as="targetPoint" />
          </mxGeometry>
        </mxCell>
        <mxCell id="rko0CJg5x_IpnPn0Ixie-32" value="官方直播间" style="text;html=1;strokeColor=#6c8ebf;fillColor=#dae8fc;align=center;verticalAlign=middle;whiteSpace=wrap;rounded=0;" parent="1" vertex="1">
          <mxGeometry x="545" y="1120" width="105" height="20" as="geometry" />
        </mxCell>
        <mxCell id="rko0CJg5x_IpnPn0Ixie-34" value="官方直播间的RoomID是固定的，根据不同的时间段，有不同的FakeRoomID" style="text;html=1;strokeColor=none;fillColor=none;align=center;verticalAlign=middle;whiteSpace=wrap;rounded=0;" parent="1" vertex="1">
          <mxGeometry x="665" y="1120" width="220" height="20" as="geometry" />
        </mxCell>
        <mxCell id="rko0CJg5x_IpnPn0Ixie-35" value="" style="html=1;points=[];perimeter=orthogonalPerimeter;" parent="1" vertex="1">
          <mxGeometry x="602.5" y="1240" width="10" height="80" as="geometry" />
        </mxCell>
        <mxCell id="rko0CJg5x_IpnPn0Ixie-36" value="GetSceneByBiz(&quot;enter&quot;)" style="html=1;verticalAlign=bottom;endArrow=block;entryX=0;entryY=0;" parent="1" target="rko0CJg5x_IpnPn0Ixie-35" edge="1">
          <mxGeometry relative="1" as="geometry">
            <mxPoint x="505" y="1240" as="sourcePoint" />
          </mxGeometry>
        </mxCell>
        <mxCell id="rko0CJg5x_IpnPn0Ixie-37" value="EnterBiz" style="html=1;verticalAlign=bottom;endArrow=open;dashed=1;endSize=8;exitX=0;exitY=0.95;" parent="1" source="rko0CJg5x_IpnPn0Ixie-35" edge="1">
          <mxGeometry relative="1" as="geometry">
            <mxPoint x="505" y="1316" as="targetPoint" />
          </mxGeometry>
        </mxCell>
        <mxCell id="rko0CJg5x_IpnPn0Ixie-38" value="业务逻辑预定义" style="text;html=1;strokeColor=#6c8ebf;fillColor=#dae8fc;align=center;verticalAlign=middle;whiteSpace=wrap;rounded=0;" parent="1" vertex="1">
          <mxGeometry x="545" y="1270" width="105" height="20" as="geometry" />
        </mxCell>
        <mxCell id="rko0CJg5x_IpnPn0Ixie-40" value="从TCC配置中根据BizName获取对应的check开关" style="text;html=1;strokeColor=none;fillColor=none;align=center;verticalAlign=middle;whiteSpace=wrap;rounded=0;" parent="1" vertex="1">
          <mxGeometry x="665" y="1270" width="220" height="20" as="geometry" />
        </mxCell>
        <mxCell id="rko0CJg5x_IpnPn0Ixie-41" value="" style="html=1;points=[];perimeter=orthogonalPerimeter;" parent="1" vertex="1">
          <mxGeometry x="495" y="1450" width="10" height="80" as="geometry" />
        </mxCell>
        <mxCell id="rko0CJg5x_IpnPn0Ixie-42" value="DoCheckUserContext" style="html=1;verticalAlign=bottom;endArrow=block;entryX=0;entryY=0;" parent="1" source="rko0CJg5x_IpnPn0Ixie-12" target="rko0CJg5x_IpnPn0Ixie-41" edge="1">
          <mxGeometry relative="1" as="geometry">
            <mxPoint x="425" y="1450" as="sourcePoint" />
          </mxGeometry>
        </mxCell>
        <mxCell id="rko0CJg5x_IpnPn0Ixie-43" value="err" style="html=1;verticalAlign=bottom;endArrow=open;dashed=1;endSize=8;exitX=0;exitY=0.95;" parent="1" source="rko0CJg5x_IpnPn0Ixie-41" edge="1">
          <mxGeometry relative="1" as="geometry">
            <mxPoint x="360" y="1526" as="targetPoint" />
          </mxGeometry>
        </mxCell>
        <mxCell id="rko0CJg5x_IpnPn0Ixie-44" value="调用DoCheckWithoutRPC" style="text;html=1;strokeColor=#6c8ebf;fillColor=#dae8fc;align=center;verticalAlign=middle;whiteSpace=wrap;rounded=0;" parent="1" vertex="1">
          <mxGeometry x="518.17" y="1480" width="220" height="20" as="geometry" />
        </mxCell>
        <mxCell id="rko0CJg5x_IpnPn0Ixie-45" value="" style="html=1;points=[];perimeter=orthogonalPerimeter;" parent="1" vertex="1">
          <mxGeometry x="495" y="1580" width="10" height="120" as="geometry" />
        </mxCell>
        <mxCell id="rko0CJg5x_IpnPn0Ixie-46" value="DoDemotion" style="html=1;verticalAlign=bottom;endArrow=block;entryX=0;entryY=0;" parent="1" target="rko0CJg5x_IpnPn0Ixie-45" edge="1">
          <mxGeometry relative="1" as="geometry">
            <mxPoint x="362.5" y="1580" as="sourcePoint" />
          </mxGeometry>
        </mxCell>
        <mxCell id="rko0CJg5x_IpnPn0Ixie-47" value="demotionRoomData, err" style="html=1;verticalAlign=bottom;endArrow=open;dashed=1;endSize=8;exitX=0;exitY=0.95;" parent="1" source="rko0CJg5x_IpnPn0Ixie-45" target="rko0CJg5x_IpnPn0Ixie-12" edge="1">
          <mxGeometry relative="1" as="geometry">
            <mxPoint x="360" y="1656" as="targetPoint" />
          </mxGeometry>
        </mxCell>
        <mxCell id="rko0CJg5x_IpnPn0Ixie-48" value="根据 webcast.common.common的配置&lt;br&gt;/live/room/enter/global_demotion&amp;nbsp; 全部降级&lt;br&gt;webcast.room.api&amp;nbsp;enter_room_demotion 按LiveID降级" style="text;html=1;strokeColor=#6c8ebf;fillColor=#dae8fc;align=center;verticalAlign=middle;whiteSpace=wrap;rounded=0;" parent="1" vertex="1">
          <mxGeometry x="510" y="1560" width="330" height="50" as="geometry" />
        </mxCell>
        <mxCell id="rko0CJg5x_IpnPn0Ixie-49" value="" style="html=1;points=[];perimeter=orthogonalPerimeter;" parent="1" vertex="1">
          <mxGeometry x="572.5" y="1640" width="10" height="50" as="geometry" />
        </mxCell>
        <mxCell id="rko0CJg5x_IpnPn0Ixie-50" value="dropRequest" style="html=1;verticalAlign=bottom;endArrow=block;entryX=0;entryY=0;" parent="1" source="rko0CJg5x_IpnPn0Ixie-45" target="rko0CJg5x_IpnPn0Ixie-49" edge="1">
          <mxGeometry relative="1" as="geometry">
            <mxPoint x="502.5" y="1640" as="sourcePoint" />
          </mxGeometry>
        </mxCell>
        <mxCell id="rko0CJg5x_IpnPn0Ixie-51" value="return" style="html=1;verticalAlign=bottom;endArrow=open;dashed=1;endSize=8;exitX=0;exitY=0.95;" parent="1" source="rko0CJg5x_IpnPn0Ixie-49" target="rko0CJg5x_IpnPn0Ixie-45" edge="1">
          <mxGeometry relative="1" as="geometry">
            <mxPoint x="502.5" y="1716" as="targetPoint" />
          </mxGeometry>
        </mxCell>
        <mxCell id="rko0CJg5x_IpnPn0Ixie-52" value="按TCC配置百分比丢弃请求" style="text;html=1;strokeColor=#6c8ebf;fillColor=#dae8fc;align=center;verticalAlign=middle;whiteSpace=wrap;rounded=0;" parent="1" vertex="1">
          <mxGeometry x="596.25" y="1650" width="157.5" height="20" as="geometry" />
        </mxCell>
        <mxCell id="rko0CJg5x_IpnPn0Ixie-53" value="" style="html=1;points=[];perimeter=orthogonalPerimeter;" parent="1" vertex="1">
          <mxGeometry x="510" y="1800" width="10" height="80" as="geometry" />
        </mxCell>
        <mxCell id="rko0CJg5x_IpnPn0Ixie-54" value="PackRoomData" style="html=1;verticalAlign=bottom;endArrow=block;entryX=0;entryY=0;" parent="1" source="rko0CJg5x_IpnPn0Ixie-12" target="rko0CJg5x_IpnPn0Ixie-53" edge="1">
          <mxGeometry relative="1" as="geometry">
            <mxPoint x="440" y="1800" as="sourcePoint" />
          </mxGeometry>
        </mxCell>
        <mxCell id="rko0CJg5x_IpnPn0Ixie-55" value="roomData,err" style="html=1;verticalAlign=bottom;endArrow=open;dashed=1;endSize=8;exitX=0;exitY=0.95;" parent="1" source="rko0CJg5x_IpnPn0Ixie-53" target="rko0CJg5x_IpnPn0Ixie-12" edge="1">
          <mxGeometry relative="1" as="geometry">
            <mxPoint x="440" y="1876" as="targetPoint" />
          </mxGeometry>
        </mxCell>
        <mxCell id="rko0CJg5x_IpnPn0Ixie-56" value="err:&amp;nbsp;&lt;br&gt;RoomHasFinished&lt;br&gt;RoomAcquaitanceHasFinished&lt;br&gt;RoomDoesNotExists" style="text;html=1;strokeColor=#6c8ebf;fillColor=#dae8fc;align=center;verticalAlign=middle;whiteSpace=wrap;rounded=0;" parent="1" vertex="1">
          <mxGeometry x="570" y="1800" width="170" height="70" as="geometry" />
        </mxCell>
        <mxCell id="rko0CJg5x_IpnPn0Ixie-57" value="" style="html=1;points=[];perimeter=orthogonalPerimeter;" parent="1" vertex="1">
          <mxGeometry x="518.17" y="2800" width="10" height="60" as="geometry" />
        </mxCell>
        <mxCell id="rko0CJg5x_IpnPn0Ixie-58" value="PingUser" style="html=1;verticalAlign=bottom;endArrow=block;entryX=0;entryY=0;exitX=0.983;exitY=0.871;exitDx=0;exitDy=0;exitPerimeter=0;" parent="1" target="rko0CJg5x_IpnPn0Ixie-57" edge="1">
          <mxGeometry relative="1" as="geometry">
            <mxPoint x="362.50000000000006" y="2801.02" as="sourcePoint" />
          </mxGeometry>
        </mxCell>
        <mxCell id="rko0CJg5x_IpnPn0Ixie-59" value="return" style="html=1;verticalAlign=bottom;endArrow=open;dashed=1;endSize=8;exitX=0;exitY=0.95;" parent="1" source="rko0CJg5x_IpnPn0Ixie-57" edge="1">
          <mxGeometry relative="1" as="geometry">
            <mxPoint x="362.67" y="2857" as="targetPoint" />
          </mxGeometry>
        </mxCell>
        <mxCell id="rko0CJg5x_IpnPn0Ixie-60" value="" style="html=1;points=[];perimeter=orthogonalPerimeter;" parent="1" vertex="1">
          <mxGeometry x="518.17" y="2690" width="10" height="60" as="geometry" />
        </mxCell>
        <mxCell id="rko0CJg5x_IpnPn0Ixie-61" value="GenExtra" style="html=1;verticalAlign=bottom;endArrow=block;entryX=0;entryY=0;exitX=0.983;exitY=0.871;exitDx=0;exitDy=0;exitPerimeter=0;" parent="1" target="rko0CJg5x_IpnPn0Ixie-60" edge="1">
          <mxGeometry relative="1" as="geometry">
            <mxPoint x="362.5" y="2691.02" as="sourcePoint" />
          </mxGeometry>
        </mxCell>
        <mxCell id="rko0CJg5x_IpnPn0Ixie-62" value="return" style="html=1;verticalAlign=bottom;endArrow=open;dashed=1;endSize=8;exitX=0;exitY=0.95;" parent="1" source="rko0CJg5x_IpnPn0Ixie-60" edge="1">
          <mxGeometry relative="1" as="geometry">
            <mxPoint x="362.6700000000001" y="2747" as="targetPoint" />
          </mxGeometry>
        </mxCell>
        <mxCell id="rko0CJg5x_IpnPn0Ixie-63" value="" style="html=1;points=[];perimeter=orthogonalPerimeter;" parent="1" vertex="1">
          <mxGeometry x="518.17" y="1930" width="10" height="670" as="geometry" />
        </mxCell>
        <mxCell id="rko0CJg5x_IpnPn0Ixie-64" value="DoEnter" style="html=1;verticalAlign=bottom;endArrow=block;entryX=0;entryY=0;exitX=0.983;exitY=0.871;exitDx=0;exitDy=0;exitPerimeter=0;" parent="1" target="rko0CJg5x_IpnPn0Ixie-63" edge="1">
          <mxGeometry relative="1" as="geometry">
            <mxPoint x="362.5" y="1931.02" as="sourcePoint" />
          </mxGeometry>
        </mxCell>
        <mxCell id="rko0CJg5x_IpnPn0Ixie-65" value="return" style="html=1;verticalAlign=bottom;endArrow=open;dashed=1;endSize=8;exitX=0;exitY=0.95;" parent="1" source="rko0CJg5x_IpnPn0Ixie-63" target="rko0CJg5x_IpnPn0Ixie-12" edge="1">
          <mxGeometry relative="1" as="geometry">
            <mxPoint x="362.6700000000001" y="1987" as="targetPoint" />
          </mxGeometry>
        </mxCell>
        <mxCell id="rko0CJg5x_IpnPn0Ixie-67" value="" style="html=1;points=[];perimeter=orthogonalPerimeter;" parent="1" vertex="1">
          <mxGeometry x="660" y="1980" width="10" height="80" as="geometry" />
        </mxCell>
        <mxCell id="rko0CJg5x_IpnPn0Ixie-68" value="shark.CheckSpam" style="html=1;verticalAlign=bottom;endArrow=block;entryX=0;entryY=0;" parent="1" target="rko0CJg5x_IpnPn0Ixie-67" edge="1">
          <mxGeometry relative="1" as="geometry">
            <mxPoint x="528.1700000000001" y="1980" as="sourcePoint" />
          </mxGeometry>
        </mxCell>
        <mxCell id="rko0CJg5x_IpnPn0Ixie-69" value="decision,err" style="html=1;verticalAlign=bottom;endArrow=open;dashed=1;endSize=8;exitX=0;exitY=0.95;" parent="1" source="rko0CJg5x_IpnPn0Ixie-67" edge="1">
          <mxGeometry relative="1" as="geometry">
            <mxPoint x="528.1700000000001" y="2056" as="targetPoint" />
          </mxGeometry>
        </mxCell>
        <mxCell id="rko0CJg5x_IpnPn0Ixie-70" value="err则认为PASS,&lt;br&gt;decision.detail包含了具体的细节：&lt;br&gt;如需要文字认证，滑动窗口认证等" style="text;html=1;strokeColor=#6c8ebf;fillColor=#dae8fc;align=center;verticalAlign=middle;whiteSpace=wrap;rounded=0;" parent="1" vertex="1">
          <mxGeometry x="700" y="1970" width="160" height="90" as="geometry" />
        </mxCell>
        <mxCell id="rko0CJg5x_IpnPn0Ixie-71" value="" style="html=1;points=[];perimeter=orthogonalPerimeter;" parent="1" vertex="1">
          <mxGeometry x="660" y="2140" width="10" height="80" as="geometry" />
        </mxCell>
        <mxCell id="rko0CJg5x_IpnPn0Ixie-72" value="allowsdk.InAllowList" style="html=1;verticalAlign=bottom;endArrow=block;entryX=0;entryY=0;" parent="1" source="rko0CJg5x_IpnPn0Ixie-63" target="rko0CJg5x_IpnPn0Ixie-71" edge="1">
          <mxGeometry relative="1" as="geometry">
            <mxPoint x="590" y="2140" as="sourcePoint" />
          </mxGeometry>
        </mxCell>
        <mxCell id="rko0CJg5x_IpnPn0Ixie-73" value="return" style="html=1;verticalAlign=bottom;endArrow=open;dashed=1;endSize=8;exitX=0;exitY=0.95;" parent="1" source="rko0CJg5x_IpnPn0Ixie-71" target="rko0CJg5x_IpnPn0Ixie-63" edge="1">
          <mxGeometry relative="1" as="geometry">
            <mxPoint x="590" y="2216" as="targetPoint" />
          </mxGeometry>
        </mxCell>
        <mxCell id="rko0CJg5x_IpnPn0Ixie-74" value="白名单逻辑，仅在调用shark的情况下使用到" style="text;html=1;strokeColor=#6c8ebf;fillColor=#dae8fc;align=center;verticalAlign=middle;whiteSpace=wrap;rounded=0;" parent="1" vertex="1">
          <mxGeometry x="690" y="2150" width="160" height="50" as="geometry" />
        </mxCell>
        <mxCell id="rko0CJg5x_IpnPn0Ixie-78" value="webcast.room.user" style="shape=umlLifeline;perimeter=lifelinePerimeter;whiteSpace=wrap;html=1;container=1;collapsible=0;recursiveResize=0;outlineConnect=0;" parent="1" vertex="1">
          <mxGeometry x="1240" y="470" width="100" height="2610" as="geometry" />
        </mxCell>
        <mxCell id="rko0CJg5x_IpnPn0Ixie-80" value="" style="html=1;points=[];perimeter=orthogonalPerimeter;" parent="rko0CJg5x_IpnPn0Ixie-78" vertex="1">
          <mxGeometry x="45" y="2000" width="10" height="80" as="geometry" />
        </mxCell>
        <mxCell id="rko0CJg5x_IpnPn0Ixie-81" value="EnterRoom" style="html=1;verticalAlign=bottom;endArrow=block;entryX=0;entryY=0;" parent="1" source="rko0CJg5x_IpnPn0Ixie-63" target="rko0CJg5x_IpnPn0Ixie-80" edge="1">
          <mxGeometry relative="1" as="geometry">
            <mxPoint x="620" y="2460" as="sourcePoint" />
          </mxGeometry>
        </mxCell>
        <mxCell id="rko0CJg5x_IpnPn0Ixie-82" value="return" style="html=1;verticalAlign=bottom;endArrow=open;dashed=1;endSize=8;exitX=0;exitY=0.95;" parent="1" source="rko0CJg5x_IpnPn0Ixie-80" target="rko0CJg5x_IpnPn0Ixie-63" edge="1">
          <mxGeometry relative="1" as="geometry">
            <mxPoint x="620" y="2536" as="targetPoint" />
          </mxGeometry>
        </mxCell>
        <mxCell id="sGh2FiVioXZhZlTfB1Zx-1" value="观众" style="shape=umlActor;verticalLabelPosition=bottom;verticalAlign=top;html=1;outlineConnect=0;" parent="1" vertex="1">
          <mxGeometry x="220" y="-340" width="30" height="60" as="geometry" />
        </mxCell>
        <mxCell id="sGh2FiVioXZhZlTfB1Zx-2" value="客户端" style="rounded=0;whiteSpace=wrap;html=1;" parent="1" vertex="1">
          <mxGeometry x="315" y="-330" width="120" height="60" as="geometry" />
        </mxCell>
        <mxCell id="sGh2FiVioXZhZlTfB1Zx-3" value="拉流地址" style="ellipse;shape=cloud;whiteSpace=wrap;html=1;" parent="1" vertex="1">
          <mxGeometry x="700" y="-580" width="120" height="80" as="geometry" />
        </mxCell>
        <mxCell id="sGh2FiVioXZhZlTfB1Zx-5" value="推流地址" style="ellipse;shape=cloud;whiteSpace=wrap;html=1;" parent="1" vertex="1">
          <mxGeometry x="1030" y="-580" width="120" height="80" as="geometry" />
        </mxCell>
        <mxCell id="sGh2FiVioXZhZlTfB1Zx-7" value="CDN" style="shape=cylinder3;whiteSpace=wrap;html=1;boundedLbl=1;backgroundOutline=1;size=15;" parent="1" vertex="1">
          <mxGeometry x="895" y="-580" width="60" height="80" as="geometry" />
        </mxCell>
        <mxCell id="sGh2FiVioXZhZlTfB1Zx-11" value="主播" style="shape=umlActor;verticalLabelPosition=bottom;verticalAlign=top;html=1;outlineConnect=0;" parent="1" vertex="1">
          <mxGeometry x="1580" y="-360" width="30" height="60" as="geometry" />
        </mxCell>
        <mxCell id="sGh2FiVioXZhZlTfB1Zx-15" value="客户端" style="rounded=0;whiteSpace=wrap;html=1;" parent="1" vertex="1">
          <mxGeometry x="1450" y="-360" width="120" height="60" as="geometry" />
        </mxCell>
        <mxCell id="sGh2FiVioXZhZlTfB1Zx-19" value="" style="shape=internalStorage;whiteSpace=wrap;html=1;backgroundOutline=1;" parent="1" vertex="1">
          <mxGeometry x="643.75" y="-26" width="140" height="80" as="geometry" />
        </mxCell>
        <mxCell id="sGh2FiVioXZhZlTfB1Zx-20" value="拉黑列表" style="text;html=1;strokeColor=none;fillColor=none;align=center;verticalAlign=middle;whiteSpace=wrap;rounded=0;" parent="1" vertex="1">
          <mxGeometry x="683.75" y="-26" width="60" height="20" as="geometry" />
        </mxCell>
        <mxCell id="sGh2FiVioXZhZlTfB1Zx-21" value="" style="rounded=0;whiteSpace=wrap;html=1;" parent="1" vertex="1">
          <mxGeometry x="638.75" y="74" width="120" height="130" as="geometry" />
        </mxCell>
        <mxCell id="sGh2FiVioXZhZlTfB1Zx-22" value="Room" style="text;html=1;strokeColor=none;fillColor=none;align=center;verticalAlign=middle;whiteSpace=wrap;rounded=0;" parent="1" vertex="1">
          <mxGeometry x="643.75" y="74" width="40" height="20" as="geometry" />
        </mxCell>
        <mxCell id="sGh2FiVioXZhZlTfB1Zx-23" value="RoomID" style="text;html=1;strokeColor=none;fillColor=none;align=center;verticalAlign=middle;whiteSpace=wrap;rounded=0;" parent="1" vertex="1">
          <mxGeometry x="668.75" y="94" width="40" height="20" as="geometry" />
        </mxCell>
        <mxCell id="sGh2FiVioXZhZlTfB1Zx-25" value="直播服务" style="text;html=1;strokeColor=none;fillColor=none;align=center;verticalAlign=middle;whiteSpace=wrap;rounded=0;" parent="1" vertex="1">
          <mxGeometry x="630" y="-210" width="60" height="20" as="geometry" />
        </mxCell>
        <mxCell id="sGh2FiVioXZhZlTfB1Zx-27" value="" style="rounded=0;whiteSpace=wrap;html=1;" parent="1" vertex="1">
          <mxGeometry x="920" y="-16" width="120" height="60" as="geometry" />
        </mxCell>
        <mxCell id="sGh2FiVioXZhZlTfB1Zx-28" value="User 用户信息" style="text;html=1;strokeColor=none;fillColor=none;align=center;verticalAlign=middle;whiteSpace=wrap;rounded=0;" parent="1" vertex="1">
          <mxGeometry x="925" y="-16" width="105" height="20" as="geometry" />
        </mxCell>
        <mxCell id="sGh2FiVioXZhZlTfB1Zx-29" value="UserID" style="text;html=1;strokeColor=none;fillColor=none;align=center;verticalAlign=middle;whiteSpace=wrap;rounded=0;" parent="1" vertex="1">
          <mxGeometry x="950" y="4" width="40" height="20" as="geometry" />
        </mxCell>
        <mxCell id="sGh2FiVioXZhZlTfB1Zx-30" value="" style="endArrow=none;html=1;" parent="1" edge="1">
          <mxGeometry width="50" height="50" relative="1" as="geometry">
            <mxPoint x="621" y="-46" as="sourcePoint" />
            <mxPoint x="1090" y="-46" as="targetPoint" />
          </mxGeometry>
        </mxCell>
        <mxCell id="sGh2FiVioXZhZlTfB1Zx-31" value="存储" style="text;html=1;strokeColor=none;fillColor=none;align=center;verticalAlign=middle;whiteSpace=wrap;rounded=0;" parent="1" vertex="1">
          <mxGeometry x="620" y="-46" width="40" height="20" as="geometry" />
        </mxCell>
        <mxCell id="sGh2FiVioXZhZlTfB1Zx-32" value="流URL" style="text;html=1;strokeColor=none;fillColor=none;align=center;verticalAlign=middle;whiteSpace=wrap;rounded=0;" parent="1" vertex="1">
          <mxGeometry x="669" y="114" width="40" height="20" as="geometry" />
        </mxCell>
        <mxCell id="sGh2FiVioXZhZlTfB1Zx-34" value="webcast.room.api" style="rounded=0;whiteSpace=wrap;html=1;" parent="1" vertex="1">
          <mxGeometry x="643.75" y="-170" width="120" height="60" as="geometry" />
        </mxCell>
        <mxCell id="sGh2FiVioXZhZlTfB1Zx-37" value="" style="curved=1;endArrow=classic;html=1;exitX=0.16;exitY=0.55;exitDx=0;exitDy=0;exitPerimeter=0;entryX=0.5;entryY=0;entryDx=0;entryDy=0;" parent="1" source="sGh2FiVioXZhZlTfB1Zx-3" target="sGh2FiVioXZhZlTfB1Zx-2" edge="1">
          <mxGeometry width="50" height="50" relative="1" as="geometry">
            <mxPoint x="630" y="-490" as="sourcePoint" />
            <mxPoint x="680" y="-540" as="targetPoint" />
            <Array as="points">
              <mxPoint x="690" y="-530" />
              <mxPoint x="630" y="-500" />
              <mxPoint x="480" y="-420" />
            </Array>
          </mxGeometry>
        </mxCell>
        <mxCell id="sGh2FiVioXZhZlTfB1Zx-38" value="" style="curved=1;endArrow=classic;html=1;exitX=0.5;exitY=0;exitDx=0;exitDy=0;entryX=0.875;entryY=0.5;entryDx=0;entryDy=0;entryPerimeter=0;" parent="1" source="sGh2FiVioXZhZlTfB1Zx-15" target="sGh2FiVioXZhZlTfB1Zx-5" edge="1">
          <mxGeometry width="50" height="50" relative="1" as="geometry">
            <mxPoint x="729.1999999999998" y="-526" as="sourcePoint" />
            <mxPoint x="445" y="-290" as="targetPoint" />
            <Array as="points">
              <mxPoint x="1300" y="-480" />
              <mxPoint x="1250" y="-510" />
            </Array>
          </mxGeometry>
        </mxCell>
        <mxCell id="sGh2FiVioXZhZlTfB1Zx-39" value="" style="curved=1;endArrow=classic;html=1;exitX=0.16;exitY=0.55;exitDx=0;exitDy=0;entryX=1;entryY=0.5;entryDx=0;entryDy=0;entryPerimeter=0;exitPerimeter=0;" parent="1" source="sGh2FiVioXZhZlTfB1Zx-5" target="sGh2FiVioXZhZlTfB1Zx-7" edge="1">
          <mxGeometry width="50" height="50" relative="1" as="geometry">
            <mxPoint x="1265" y="-180" as="sourcePoint" />
            <mxPoint x="950" y="-390" as="targetPoint" />
            <Array as="points" />
          </mxGeometry>
        </mxCell>
        <mxCell id="sGh2FiVioXZhZlTfB1Zx-40" value="" style="curved=1;endArrow=classic;html=1;exitX=0;exitY=0.5;exitDx=0;exitDy=0;entryX=0.875;entryY=0.5;entryDx=0;entryDy=0;entryPerimeter=0;exitPerimeter=0;" parent="1" source="sGh2FiVioXZhZlTfB1Zx-7" target="sGh2FiVioXZhZlTfB1Zx-3" edge="1">
          <mxGeometry width="50" height="50" relative="1" as="geometry">
            <mxPoint x="894.9999999999998" y="-556" as="sourcePoint" />
            <mxPoint x="800.8" y="-560" as="targetPoint" />
            <Array as="points" />
          </mxGeometry>
        </mxCell>
        <mxCell id="sGh2FiVioXZhZlTfB1Zx-41" value="" style="curved=1;endArrow=classic;html=1;exitX=0.5;exitY=1;exitDx=0;exitDy=0;entryX=0;entryY=0.5;entryDx=0;entryDy=0;" parent="1" source="sGh2FiVioXZhZlTfB1Zx-2" target="sGh2FiVioXZhZlTfB1Zx-34" edge="1">
          <mxGeometry width="50" height="50" relative="1" as="geometry">
            <mxPoint x="729.1999999999998" y="-526" as="sourcePoint" />
            <mxPoint x="445" y="-290" as="targetPoint" />
            <Array as="points">
              <mxPoint x="510" y="-180" />
              <mxPoint x="560" y="-160" />
              <mxPoint x="590" y="-150" />
            </Array>
          </mxGeometry>
        </mxCell>
        <mxCell id="sGh2FiVioXZhZlTfB1Zx-42" value="" style="curved=1;endArrow=classic;html=1;entryX=1;entryY=0.5;entryDx=0;entryDy=0;startArrow=none;" parent="1" target="sGh2FiVioXZhZlTfB1Zx-21" edge="1">
          <mxGeometry width="50" height="50" relative="1" as="geometry">
            <mxPoint x="764" y="-140" as="sourcePoint" />
            <mxPoint x="1303.75" y="-30" as="targetPoint" />
            <Array as="points">
              <mxPoint x="830" y="-90" />
              <mxPoint x="840" />
              <mxPoint x="840" y="20" />
              <mxPoint x="820" y="100" />
            </Array>
          </mxGeometry>
        </mxCell>
        <mxCell id="sGh2FiVioXZhZlTfB1Zx-43" value="最基础的数据可以缓存到room.api" style="text;html=1;strokeColor=#6c8ebf;fillColor=#dae8fc;align=center;verticalAlign=middle;whiteSpace=wrap;rounded=0;" parent="1" vertex="1">
          <mxGeometry x="636.88" y="-100" width="133.75" height="40" as="geometry" />
        </mxCell>
        <mxCell id="sGh2FiVioXZhZlTfB1Zx-45" value="基础功能是观看，交互" style="text;html=1;strokeColor=#6c8ebf;fillColor=#dae8fc;align=center;verticalAlign=middle;whiteSpace=wrap;rounded=0;" parent="1" vertex="1">
          <mxGeometry x="180" y="-380" width="130" height="20" as="geometry" />
        </mxCell>
        <mxCell id="sGh2FiVioXZhZlTfB1Zx-46" value="如果首次进房没有加载完所有数据，客户端可以后续进行重试加载" style="text;html=1;strokeColor=#6c8ebf;fillColor=#dae8fc;align=center;verticalAlign=middle;whiteSpace=wrap;rounded=0;" parent="1" vertex="1">
          <mxGeometry x="360" y="-150" width="130" height="50" as="geometry" />
        </mxCell>
        <mxCell id="sGh2FiVioXZhZlTfB1Zx-47" value="尽量缩短服务和目标数据之间的距离" style="text;html=1;strokeColor=#6c8ebf;fillColor=#dae8fc;align=center;verticalAlign=middle;whiteSpace=wrap;rounded=0;" parent="1" vertex="1">
          <mxGeometry x="830" y="-110" width="100" height="40" as="geometry" />
        </mxCell>
        <mxCell id="sGh2FiVioXZhZlTfB1Zx-48" value="" style="curved=1;endArrow=classic;html=1;exitX=0.5;exitY=1;exitDx=0;exitDy=0;entryX=1;entryY=0.75;entryDx=0;entryDy=0;" parent="1" source="sGh2FiVioXZhZlTfB1Zx-15" target="sGh2FiVioXZhZlTfB1Zx-21" edge="1">
          <mxGeometry width="50" height="50" relative="1" as="geometry">
            <mxPoint x="1564.1999999999998" y="-162" as="sourcePoint" />
            <mxPoint x="1200" y="-160" as="targetPoint" />
            <Array as="points">
              <mxPoint x="1480" y="-220" />
              <mxPoint x="1370" y="-20" />
            </Array>
          </mxGeometry>
        </mxCell>
        <mxCell id="sGh2FiVioXZhZlTfB1Zx-49" value="写入" style="text;html=1;strokeColor=none;fillColor=none;align=center;verticalAlign=middle;whiteSpace=wrap;rounded=0;" parent="1" vertex="1">
          <mxGeometry x="1170" y="24" width="40" height="20" as="geometry" />
        </mxCell>
        <mxCell id="cJn1-5kdTX8YehVj2-MU-1" value="规则+逻辑构成" style="text;html=1;strokeColor=none;fillColor=none;align=center;verticalAlign=middle;whiteSpace=wrap;rounded=0;fontStyle=2" vertex="1" parent="1">
          <mxGeometry x="643.75" y="-190" width="116.25" height="20" as="geometry" />
        </mxCell>
        <mxCell id="cJn1-5kdTX8YehVj2-MU-2" value="RPC" style="rounded=0;whiteSpace=wrap;html=1;fillColor=#fff2cc;strokeColor=#d6b656;" vertex="1" parent="1">
          <mxGeometry x="281.5" y="-1990" width="120" height="60" as="geometry" />
        </mxCell>
        <mxCell id="cJn1-5kdTX8YehVj2-MU-3" value="" style="endArrow=classic;html=1;exitX=0.5;exitY=1;exitDx=0;exitDy=0;entryX=0.5;entryY=0;entryDx=0;entryDy=0;" edge="1" parent="1" source="cJn1-5kdTX8YehVj2-MU-2" target="cJn1-5kdTX8YehVj2-MU-6">
          <mxGeometry width="50" height="50" relative="1" as="geometry">
            <mxPoint x="361.5" y="-1740" as="sourcePoint" />
            <mxPoint x="251.5" y="-1780" as="targetPoint" />
          </mxGeometry>
        </mxCell>
        <mxCell id="cJn1-5kdTX8YehVj2-MU-4" value="计算" style="rounded=0;whiteSpace=wrap;html=1;fillColor=#d5e8d4;strokeColor=#82b366;" vertex="1" parent="1">
          <mxGeometry x="371.5" y="-1820" width="120" height="60" as="geometry" />
        </mxCell>
        <mxCell id="cJn1-5kdTX8YehVj2-MU-5" value="" style="endArrow=classic;html=1;exitX=0.5;exitY=1;exitDx=0;exitDy=0;entryX=0.5;entryY=0;entryDx=0;entryDy=0;" edge="1" parent="1" source="cJn1-5kdTX8YehVj2-MU-2" target="cJn1-5kdTX8YehVj2-MU-4">
          <mxGeometry width="50" height="50" relative="1" as="geometry">
            <mxPoint x="351.5" y="-1920" as="sourcePoint" />
            <mxPoint x="261.5" y="-1770" as="targetPoint" />
          </mxGeometry>
        </mxCell>
        <mxCell id="cJn1-5kdTX8YehVj2-MU-6" value="计算" style="rounded=0;whiteSpace=wrap;html=1;fillColor=#d5e8d4;strokeColor=#82b366;" vertex="1" parent="1">
          <mxGeometry x="201.5" y="-1820" width="120" height="60" as="geometry" />
        </mxCell>
        <mxCell id="cJn1-5kdTX8YehVj2-MU-7" value="计算" style="rounded=0;whiteSpace=wrap;html=1;fillColor=#d5e8d4;strokeColor=#82b366;" vertex="1" parent="1">
          <mxGeometry x="121.5" y="-1680" width="120" height="60" as="geometry" />
        </mxCell>
        <mxCell id="cJn1-5kdTX8YehVj2-MU-8" value="" style="endArrow=classic;html=1;exitX=0.5;exitY=1;exitDx=0;exitDy=0;entryX=0.5;entryY=0;entryDx=0;entryDy=0;" edge="1" parent="1" source="cJn1-5kdTX8YehVj2-MU-7" target="cJn1-5kdTX8YehVj2-MU-11">
          <mxGeometry width="50" height="50" relative="1" as="geometry">
            <mxPoint x="201.5" y="-1430" as="sourcePoint" />
            <mxPoint x="91.5" y="-1470" as="targetPoint" />
          </mxGeometry>
        </mxCell>
        <mxCell id="cJn1-5kdTX8YehVj2-MU-10" value="" style="endArrow=classic;html=1;exitX=0.5;exitY=1;exitDx=0;exitDy=0;entryX=0.5;entryY=0;entryDx=0;entryDy=0;" edge="1" parent="1" source="cJn1-5kdTX8YehVj2-MU-6" target="cJn1-5kdTX8YehVj2-MU-7">
          <mxGeometry width="50" height="50" relative="1" as="geometry">
            <mxPoint x="191.5" y="-1610" as="sourcePoint" />
            <mxPoint x="271.5" y="-1510" as="targetPoint" />
          </mxGeometry>
        </mxCell>
        <mxCell id="cJn1-5kdTX8YehVj2-MU-11" value="RPC" style="rounded=0;whiteSpace=wrap;html=1;fillColor=#fff2cc;strokeColor=#d6b656;" vertex="1" parent="1">
          <mxGeometry x="41.5" y="-1510" width="120" height="60" as="geometry" />
        </mxCell>
        <mxCell id="cJn1-5kdTX8YehVj2-MU-12" value="RPC" style="rounded=0;whiteSpace=wrap;html=1;fillColor=#fff2cc;strokeColor=#d6b656;" vertex="1" parent="1">
          <mxGeometry x="471.5" y="-1670" width="120" height="60" as="geometry" />
        </mxCell>
        <mxCell id="cJn1-5kdTX8YehVj2-MU-23" value="" style="edgeStyle=orthogonalEdgeStyle;rounded=0;orthogonalLoop=1;jettySize=auto;html=1;" edge="1" parent="1" source="cJn1-5kdTX8YehVj2-MU-14" target="cJn1-5kdTX8YehVj2-MU-22">
          <mxGeometry relative="1" as="geometry" />
        </mxCell>
        <mxCell id="cJn1-5kdTX8YehVj2-MU-14" value="RPC" style="rounded=0;whiteSpace=wrap;html=1;fillColor=#fff2cc;strokeColor=#d6b656;" vertex="1" parent="1">
          <mxGeometry x="561.5" y="-1500" width="120" height="60" as="geometry" />
        </mxCell>
        <mxCell id="cJn1-5kdTX8YehVj2-MU-15" value="" style="endArrow=classic;html=1;exitX=0.5;exitY=1;exitDx=0;exitDy=0;entryX=0.5;entryY=0;entryDx=0;entryDy=0;" edge="1" parent="1" source="cJn1-5kdTX8YehVj2-MU-12" target="cJn1-5kdTX8YehVj2-MU-14">
          <mxGeometry width="50" height="50" relative="1" as="geometry">
            <mxPoint x="541.5" y="-1600" as="sourcePoint" />
            <mxPoint x="451.5" y="-1450" as="targetPoint" />
          </mxGeometry>
        </mxCell>
        <mxCell id="cJn1-5kdTX8YehVj2-MU-17" value="" style="endArrow=classic;html=1;exitX=0.5;exitY=1;exitDx=0;exitDy=0;" edge="1" parent="1" source="cJn1-5kdTX8YehVj2-MU-4">
          <mxGeometry width="50" height="50" relative="1" as="geometry">
            <mxPoint x="271.5" y="-1750" as="sourcePoint" />
            <mxPoint x="531.5" y="-1670" as="targetPoint" />
          </mxGeometry>
        </mxCell>
        <mxCell id="cJn1-5kdTX8YehVj2-MU-18" value="RPC" style="rounded=0;whiteSpace=wrap;html=1;fillColor=#fff2cc;strokeColor=#d6b656;" vertex="1" parent="1">
          <mxGeometry x="301.5" y="-1670" width="120" height="60" as="geometry" />
        </mxCell>
        <mxCell id="cJn1-5kdTX8YehVj2-MU-19" value="" style="endArrow=classic;html=1;exitX=0.5;exitY=1;exitDx=0;exitDy=0;" edge="1" parent="1" source="cJn1-5kdTX8YehVj2-MU-6">
          <mxGeometry width="50" height="50" relative="1" as="geometry">
            <mxPoint x="271.5" y="-1750" as="sourcePoint" />
            <mxPoint x="361.5" y="-1670" as="targetPoint" />
          </mxGeometry>
        </mxCell>
        <mxCell id="cJn1-5kdTX8YehVj2-MU-20" value="" style="endArrow=classic;html=1;exitX=0.5;exitY=1;exitDx=0;exitDy=0;entryX=0.5;entryY=0;entryDx=0;entryDy=0;" edge="1" parent="1" source="cJn1-5kdTX8YehVj2-MU-4" target="cJn1-5kdTX8YehVj2-MU-18">
          <mxGeometry width="50" height="50" relative="1" as="geometry">
            <mxPoint x="271.5" y="-1750" as="sourcePoint" />
            <mxPoint x="371.5" y="-1660" as="targetPoint" />
          </mxGeometry>
        </mxCell>
        <mxCell id="cJn1-5kdTX8YehVj2-MU-21" value="程序执行的决策树" style="text;html=1;strokeColor=#6c8ebf;fillColor=#dae8fc;align=center;verticalAlign=middle;whiteSpace=wrap;rounded=0;fontStyle=0" vertex="1" parent="1">
          <mxGeometry x="256.5" y="-2050" width="170" height="20" as="geometry" />
        </mxCell>
        <mxCell id="cJn1-5kdTX8YehVj2-MU-22" value="计算" style="rounded=0;whiteSpace=wrap;html=1;fillColor=#d5e8d4;strokeColor=#82b366;" vertex="1" parent="1">
          <mxGeometry x="561.5" y="-1400" width="120" height="60" as="geometry" />
        </mxCell>
        <mxCell id="cJn1-5kdTX8YehVj2-MU-24" value="节点之间有依赖关系，计算节点依赖RPC获取的数据，下游RPC节点依赖上游RPC结果" style="text;html=1;strokeColor=#6c8ebf;fillColor=#dae8fc;align=center;verticalAlign=middle;whiteSpace=wrap;rounded=0;" vertex="1" parent="1">
          <mxGeometry x="240" y="-1386" width="195" height="80" as="geometry" />
        </mxCell>
        <mxCell id="cJn1-5kdTX8YehVj2-MU-26" value="计算" style="rounded=0;whiteSpace=wrap;html=1;fillColor=#d5e8d4;strokeColor=#82b366;" vertex="1" parent="1">
          <mxGeometry x="301.5" y="-1510" width="120" height="60" as="geometry" />
        </mxCell>
        <mxCell id="cJn1-5kdTX8YehVj2-MU-27" value="" style="endArrow=classic;html=1;exitX=0.5;exitY=1;exitDx=0;exitDy=0;entryX=0.5;entryY=0;entryDx=0;entryDy=0;" edge="1" parent="1" source="cJn1-5kdTX8YehVj2-MU-18" target="cJn1-5kdTX8YehVj2-MU-26">
          <mxGeometry width="50" height="50" relative="1" as="geometry">
            <mxPoint x="441.5" y="-1750" as="sourcePoint" />
            <mxPoint x="371.5" y="-1660" as="targetPoint" />
          </mxGeometry>
        </mxCell>
        <mxCell id="cJn1-5kdTX8YehVj2-MU-28" value="" style="shape=flexArrow;endArrow=classic;html=1;" edge="1" parent="1">
          <mxGeometry width="50" height="50" relative="1" as="geometry">
            <mxPoint x="702.5" y="-1660" as="sourcePoint" />
            <mxPoint x="872.5" y="-1660" as="targetPoint" />
          </mxGeometry>
        </mxCell>
        <mxCell id="cJn1-5kdTX8YehVj2-MU-29" value="重构，使用确定的顺序结构" style="text;html=1;strokeColor=none;fillColor=none;align=center;verticalAlign=middle;whiteSpace=wrap;rounded=0;" vertex="1" parent="1">
          <mxGeometry x="690" y="-1700" width="175" height="20" as="geometry" />
        </mxCell>
        <mxCell id="cJn1-5kdTX8YehVj2-MU-33" value="" style="edgeStyle=orthogonalEdgeStyle;rounded=0;orthogonalLoop=1;jettySize=auto;html=1;exitX=0.5;exitY=1;exitDx=0;exitDy=0;entryX=0.5;entryY=0;entryDx=0;entryDy=0;" edge="1" parent="1" source="cJn1-5kdTX8YehVj2-MU-55" target="cJn1-5kdTX8YehVj2-MU-56">
          <mxGeometry relative="1" as="geometry">
            <mxPoint x="930.13" y="-1920" as="sourcePoint" />
            <mxPoint x="930.13" y="-1900" as="targetPoint" />
          </mxGeometry>
        </mxCell>
        <mxCell id="cJn1-5kdTX8YehVj2-MU-34" value="RPC" style="rounded=0;whiteSpace=wrap;html=1;fillColor=#fff2cc;strokeColor=#d6b656;" vertex="1" parent="1">
          <mxGeometry x="1050.13" y="-1880" width="72.25" height="30" as="geometry" />
        </mxCell>
        <mxCell id="cJn1-5kdTX8YehVj2-MU-35" value="" style="rounded=0;whiteSpace=wrap;html=1;" vertex="1" parent="1">
          <mxGeometry x="957.88" y="-1810" width="192.25" height="110" as="geometry" />
        </mxCell>
        <mxCell id="cJn1-5kdTX8YehVj2-MU-36" value="" style="edgeStyle=orthogonalEdgeStyle;rounded=0;orthogonalLoop=1;jettySize=auto;html=1;entryX=0.5;entryY=0;entryDx=0;entryDy=0;exitX=0.5;exitY=1;exitDx=0;exitDy=0;" edge="1" parent="1" source="cJn1-5kdTX8YehVj2-MU-60" target="cJn1-5kdTX8YehVj2-MU-59">
          <mxGeometry relative="1" as="geometry">
            <mxPoint x="1044.0300000000002" y="-1750" as="sourcePoint" />
            <mxPoint x="1044.0300000000002" y="-1730" as="targetPoint" />
          </mxGeometry>
        </mxCell>
        <mxCell id="cJn1-5kdTX8YehVj2-MU-42" value="" style="endArrow=classic;html=1;entryX=0.5;entryY=0;entryDx=0;entryDy=0;exitX=0.5;exitY=1;exitDx=0;exitDy=0;" edge="1" parent="1" source="cJn1-5kdTX8YehVj2-MU-31" target="cJn1-5kdTX8YehVj2-MU-35">
          <mxGeometry width="50" height="50" relative="1" as="geometry">
            <mxPoint x="1127.88" y="-1720" as="sourcePoint" />
            <mxPoint x="571.63" y="-1540" as="targetPoint" />
          </mxGeometry>
        </mxCell>
        <mxCell id="cJn1-5kdTX8YehVj2-MU-54" value="RPC部分" style="text;html=1;strokeColor=none;fillColor=none;align=center;verticalAlign=middle;whiteSpace=wrap;rounded=0;" vertex="1" parent="1">
          <mxGeometry x="960.13" y="-1960" width="70" height="20" as="geometry" />
        </mxCell>
        <mxCell id="cJn1-5kdTX8YehVj2-MU-55" value="RPC" style="rounded=0;whiteSpace=wrap;html=1;fillColor=#fff2cc;strokeColor=#d6b656;" vertex="1" parent="1">
          <mxGeometry x="970.13" y="-1930" width="72.25" height="30" as="geometry" />
        </mxCell>
        <mxCell id="cJn1-5kdTX8YehVj2-MU-56" value="RPC" style="rounded=0;whiteSpace=wrap;html=1;fillColor=#fff2cc;strokeColor=#d6b656;" vertex="1" parent="1">
          <mxGeometry x="970.13" y="-1880" width="72.25" height="30" as="geometry" />
        </mxCell>
        <mxCell id="cJn1-5kdTX8YehVj2-MU-57" value="计算部分" style="text;html=1;strokeColor=none;fillColor=none;align=center;verticalAlign=middle;whiteSpace=wrap;rounded=0;" vertex="1" parent="1">
          <mxGeometry x="960.13" y="-1810" width="60" height="20" as="geometry" />
        </mxCell>
        <mxCell id="cJn1-5kdTX8YehVj2-MU-58" value="模块" style="text;html=1;strokeColor=#6c8ebf;fillColor=#dae8fc;align=center;verticalAlign=middle;whiteSpace=wrap;rounded=0;" vertex="1" parent="1">
          <mxGeometry x="920.13" y="-1990" width="42.25" height="20" as="geometry" />
        </mxCell>
        <mxCell id="cJn1-5kdTX8YehVj2-MU-59" value="计算" style="rounded=0;whiteSpace=wrap;html=1;fillColor=#d5e8d4;strokeColor=#82b366;" vertex="1" parent="1">
          <mxGeometry x="1010.13" y="-1740" width="72.25" height="30" as="geometry" />
        </mxCell>
        <mxCell id="cJn1-5kdTX8YehVj2-MU-60" value="计算" style="rounded=0;whiteSpace=wrap;html=1;fillColor=#d5e8d4;strokeColor=#82b366;" vertex="1" parent="1">
          <mxGeometry x="1010.13" y="-1790" width="72.25" height="30" as="geometry" />
        </mxCell>
        <mxCell id="cJn1-5kdTX8YehVj2-MU-77" value="" style="endArrow=classic;html=1;exitX=0.5;exitY=1;exitDx=0;exitDy=0;entryX=0.5;entryY=0;entryDx=0;entryDy=0;" edge="1" parent="1" source="cJn1-5kdTX8YehVj2-MU-40" target="cJn1-5kdTX8YehVj2-MU-114">
          <mxGeometry width="50" height="50" relative="1" as="geometry">
            <mxPoint x="1064.005" y="-1820" as="sourcePoint" />
            <mxPoint x="1055.13" y="-1630" as="targetPoint" />
          </mxGeometry>
        </mxCell>
        <mxCell id="cJn1-5kdTX8YehVj2-MU-78" value="模块入参" style="rounded=0;whiteSpace=wrap;html=1;fillColor=#dae8fc;strokeColor=#6c8ebf;" vertex="1" parent="1">
          <mxGeometry x="1030.13" y="-1985" width="50" height="20" as="geometry" />
        </mxCell>
        <mxCell id="cJn1-5kdTX8YehVj2-MU-79" value="模块出参" style="rounded=0;whiteSpace=wrap;html=1;fillColor=#dae8fc;strokeColor=#6c8ebf;" vertex="1" parent="1">
          <mxGeometry x="1021.0100000000001" y="-1696" width="61.12" height="20" as="geometry" />
        </mxCell>
        <mxCell id="cJn1-5kdTX8YehVj2-MU-114" value="" style="rounded=0;whiteSpace=wrap;html=1;" vertex="1" parent="1">
          <mxGeometry x="920" y="-1620" width="270" height="320" as="geometry" />
        </mxCell>
        <mxCell id="cJn1-5kdTX8YehVj2-MU-115" value="" style="rounded=0;whiteSpace=wrap;html=1;" vertex="1" parent="1">
          <mxGeometry x="957.75" y="-1590" width="192.25" height="130" as="geometry" />
        </mxCell>
        <mxCell id="cJn1-5kdTX8YehVj2-MU-116" value="" style="edgeStyle=orthogonalEdgeStyle;rounded=0;orthogonalLoop=1;jettySize=auto;html=1;exitX=0.5;exitY=1;exitDx=0;exitDy=0;entryX=0.5;entryY=0;entryDx=0;entryDy=0;" edge="1" parent="1" source="cJn1-5kdTX8YehVj2-MU-122" target="cJn1-5kdTX8YehVj2-MU-123">
          <mxGeometry relative="1" as="geometry">
            <mxPoint x="930" y="-1550" as="sourcePoint" />
            <mxPoint x="930" y="-1530" as="targetPoint" />
          </mxGeometry>
        </mxCell>
        <mxCell id="cJn1-5kdTX8YehVj2-MU-117" value="RPC" style="rounded=0;whiteSpace=wrap;html=1;fillColor=#fff2cc;strokeColor=#d6b656;" vertex="1" parent="1">
          <mxGeometry x="1050" y="-1510" width="72.25" height="30" as="geometry" />
        </mxCell>
        <mxCell id="cJn1-5kdTX8YehVj2-MU-118" value="" style="rounded=0;whiteSpace=wrap;html=1;" vertex="1" parent="1">
          <mxGeometry x="957.75" y="-1440" width="192.25" height="110" as="geometry" />
        </mxCell>
        <mxCell id="cJn1-5kdTX8YehVj2-MU-119" value="" style="edgeStyle=orthogonalEdgeStyle;rounded=0;orthogonalLoop=1;jettySize=auto;html=1;entryX=0.5;entryY=0;entryDx=0;entryDy=0;exitX=0.5;exitY=1;exitDx=0;exitDy=0;" edge="1" parent="1" source="cJn1-5kdTX8YehVj2-MU-127" target="cJn1-5kdTX8YehVj2-MU-126">
          <mxGeometry relative="1" as="geometry">
            <mxPoint x="1043.9" y="-1380" as="sourcePoint" />
            <mxPoint x="1043.9" y="-1360" as="targetPoint" />
          </mxGeometry>
        </mxCell>
        <mxCell id="cJn1-5kdTX8YehVj2-MU-120" value="" style="endArrow=classic;html=1;entryX=0.5;entryY=0;entryDx=0;entryDy=0;exitX=0.5;exitY=1;exitDx=0;exitDy=0;" edge="1" parent="1" source="cJn1-5kdTX8YehVj2-MU-115" target="cJn1-5kdTX8YehVj2-MU-118">
          <mxGeometry width="50" height="50" relative="1" as="geometry">
            <mxPoint x="1127.75" y="-1350" as="sourcePoint" />
            <mxPoint x="571.5" y="-1170" as="targetPoint" />
          </mxGeometry>
        </mxCell>
        <mxCell id="cJn1-5kdTX8YehVj2-MU-121" value="RPC部分" style="text;html=1;strokeColor=none;fillColor=none;align=center;verticalAlign=middle;whiteSpace=wrap;rounded=0;" vertex="1" parent="1">
          <mxGeometry x="960" y="-1590" width="70" height="20" as="geometry" />
        </mxCell>
        <mxCell id="cJn1-5kdTX8YehVj2-MU-122" value="RPC" style="rounded=0;whiteSpace=wrap;html=1;fillColor=#fff2cc;strokeColor=#d6b656;" vertex="1" parent="1">
          <mxGeometry x="970" y="-1560" width="72.25" height="30" as="geometry" />
        </mxCell>
        <mxCell id="cJn1-5kdTX8YehVj2-MU-123" value="RPC" style="rounded=0;whiteSpace=wrap;html=1;fillColor=#fff2cc;strokeColor=#d6b656;" vertex="1" parent="1">
          <mxGeometry x="970" y="-1510" width="72.25" height="30" as="geometry" />
        </mxCell>
        <mxCell id="cJn1-5kdTX8YehVj2-MU-124" value="计算部分" style="text;html=1;strokeColor=none;fillColor=none;align=center;verticalAlign=middle;whiteSpace=wrap;rounded=0;" vertex="1" parent="1">
          <mxGeometry x="960" y="-1440" width="60" height="20" as="geometry" />
        </mxCell>
        <mxCell id="cJn1-5kdTX8YehVj2-MU-125" value="模块" style="text;html=1;strokeColor=#6c8ebf;fillColor=#dae8fc;align=center;verticalAlign=middle;whiteSpace=wrap;rounded=0;" vertex="1" parent="1">
          <mxGeometry x="920" y="-1620" width="42.25" height="20" as="geometry" />
        </mxCell>
        <mxCell id="cJn1-5kdTX8YehVj2-MU-126" value="计算" style="rounded=0;whiteSpace=wrap;html=1;fillColor=#d5e8d4;strokeColor=#82b366;" vertex="1" parent="1">
          <mxGeometry x="1010.0000000000001" y="-1370" width="72.25" height="30" as="geometry" />
        </mxCell>
        <mxCell id="cJn1-5kdTX8YehVj2-MU-127" value="计算" style="rounded=0;whiteSpace=wrap;html=1;fillColor=#d5e8d4;strokeColor=#82b366;" vertex="1" parent="1">
          <mxGeometry x="1010.0000000000001" y="-1420" width="72.25" height="30" as="geometry" />
        </mxCell>
        <mxCell id="cJn1-5kdTX8YehVj2-MU-128" value="模块入参" style="rounded=0;whiteSpace=wrap;html=1;fillColor=#dae8fc;strokeColor=#6c8ebf;" vertex="1" parent="1">
          <mxGeometry x="1030" y="-1615" width="50" height="20" as="geometry" />
        </mxCell>
        <mxCell id="cJn1-5kdTX8YehVj2-MU-129" value="模块出参" style="rounded=0;whiteSpace=wrap;html=1;fillColor=#dae8fc;strokeColor=#6c8ebf;" vertex="1" parent="1">
          <mxGeometry x="1020.8800000000002" y="-1326" width="61.12" height="20" as="geometry" />
        </mxCell>
        <mxCell id="cJn1-5kdTX8YehVj2-MU-134" value="" style="edgeStyle=orthogonalEdgeStyle;rounded=0;orthogonalLoop=1;jettySize=auto;html=1;" edge="1" parent="1" source="cJn1-5kdTX8YehVj2-MU-131" target="cJn1-5kdTX8YehVj2-MU-133">
          <mxGeometry relative="1" as="geometry" />
        </mxCell>
        <mxCell id="cJn1-5kdTX8YehVj2-MU-131" value="Enter" style="rounded=0;whiteSpace=wrap;html=1;" vertex="1" parent="1">
          <mxGeometry x="63.5" y="3277" width="120" height="60" as="geometry" />
        </mxCell>
        <mxCell id="cJn1-5kdTX8YehVj2-MU-132" value="现有链路" style="text;html=1;strokeColor=#6c8ebf;fillColor=#dae8fc;align=center;verticalAlign=middle;whiteSpace=wrap;rounded=0;" vertex="1" parent="1">
          <mxGeometry x="63.5" y="3242" width="119.5" height="20" as="geometry" />
        </mxCell>
        <mxCell id="cJn1-5kdTX8YehVj2-MU-133" value="Parameter" style="rounded=0;whiteSpace=wrap;html=1;" vertex="1" parent="1">
          <mxGeometry x="63.5" y="3365" width="120" height="60" as="geometry" />
        </mxCell>
        <mxCell id="cJn1-5kdTX8YehVj2-MU-135" value="官方直播间&lt;br&gt;anycache加载" style="rounded=0;whiteSpace=wrap;html=1;" vertex="1" parent="1">
          <mxGeometry x="315" y="3365" width="120" height="60" as="geometry" />
        </mxCell>
        <mxCell id="cJn1-5kdTX8YehVj2-MU-136" value="" style="endArrow=classic;html=1;exitX=1;exitY=0.5;exitDx=0;exitDy=0;entryX=0;entryY=0.5;entryDx=0;entryDy=0;" edge="1" parent="1" source="cJn1-5kdTX8YehVj2-MU-133" target="cJn1-5kdTX8YehVj2-MU-135">
          <mxGeometry width="50" height="50" relative="1" as="geometry">
            <mxPoint x="439" y="3365" as="sourcePoint" />
            <mxPoint x="489" y="3315" as="targetPoint" />
          </mxGeometry>
        </mxCell>
        <mxCell id="cJn1-5kdTX8YehVj2-MU-138" value="目前加载anycache会阻塞首次请求，实际上缓存包含全量的直播间；&lt;br&gt;优化建议：启动时预热" style="text;html=1;strokeColor=#d79b00;fillColor=#ffe6cc;align=center;verticalAlign=middle;whiteSpace=wrap;rounded=0;" vertex="1" parent="1">
          <mxGeometry x="453" y="3357" width="212" height="59" as="geometry" />
        </mxCell>
        <mxCell id="cJn1-5kdTX8YehVj2-MU-139" value="获取EnterBiz配置" style="rounded=0;whiteSpace=wrap;html=1;" vertex="1" parent="1">
          <mxGeometry x="315" y="3444" width="120" height="60" as="geometry" />
        </mxCell>
        <mxCell id="cJn1-5kdTX8YehVj2-MU-140" value="" style="endArrow=classic;html=1;exitX=1;exitY=0.5;exitDx=0;exitDy=0;entryX=0;entryY=0.5;entryDx=0;entryDy=0;" edge="1" parent="1" source="cJn1-5kdTX8YehVj2-MU-133" target="cJn1-5kdTX8YehVj2-MU-139">
          <mxGeometry width="50" height="50" relative="1" as="geometry">
            <mxPoint x="264" y="3427" as="sourcePoint" />
            <mxPoint x="314" y="3377" as="targetPoint" />
          </mxGeometry>
        </mxCell>
        <mxCell id="cJn1-5kdTX8YehVj2-MU-141" value="biz=&quot;enter&quot;" style="text;html=1;strokeColor=none;fillColor=none;align=center;verticalAlign=middle;whiteSpace=wrap;rounded=0;" vertex="1" parent="1">
          <mxGeometry x="253" y="3416" width="40" height="20" as="geometry" />
        </mxCell>
        <mxCell id="cJn1-5kdTX8YehVj2-MU-142" value="全局配置：&lt;br&gt;降级&lt;br&gt;checker开关" style="text;html=1;strokeColor=#6c8ebf;fillColor=#dae8fc;align=center;verticalAlign=middle;whiteSpace=wrap;rounded=0;" vertex="1" parent="1">
          <mxGeometry x="471.5" y="3446.5" width="134.75" height="55" as="geometry" />
        </mxCell>
        <mxCell id="cJn1-5kdTX8YehVj2-MU-143" value="打印参数的metrics" style="rounded=0;whiteSpace=wrap;html=1;fillColor=#f5f5f5;strokeColor=#666666;fontColor=#333333;" vertex="1" parent="1">
          <mxGeometry x="63.5" y="3471" width="120" height="60" as="geometry" />
        </mxCell>
        <mxCell id="cJn1-5kdTX8YehVj2-MU-144" value="" style="endArrow=classic;html=1;exitX=0.5;exitY=1;exitDx=0;exitDy=0;entryX=0.5;entryY=0;entryDx=0;entryDy=0;" edge="1" parent="1" source="cJn1-5kdTX8YehVj2-MU-133" target="cJn1-5kdTX8YehVj2-MU-143">
          <mxGeometry width="50" height="50" relative="1" as="geometry">
            <mxPoint x="193.5" y="3405" as="sourcePoint" />
            <mxPoint x="395" y="3493" as="targetPoint" />
          </mxGeometry>
        </mxCell>
        <mxCell id="cJn1-5kdTX8YehVj2-MU-145" value="请求结果log" style="rounded=0;whiteSpace=wrap;html=1;fillColor=#f5f5f5;strokeColor=#666666;fontColor=#333333;" vertex="1" parent="1">
          <mxGeometry x="64" y="5430" width="120" height="60" as="geometry" />
        </mxCell>
        <mxCell id="cJn1-5kdTX8YehVj2-MU-146" value="活动Activity metrics&lt;br&gt;&lt;i&gt;针对活动直播间&lt;/i&gt;" style="rounded=0;whiteSpace=wrap;html=1;" vertex="1" parent="1">
          <mxGeometry x="391" y="5319" width="120" height="60" as="geometry" />
        </mxCell>
        <mxCell id="cJn1-5kdTX8YehVj2-MU-147" value="" style="endArrow=classic;html=1;exitX=1;exitY=0.5;exitDx=0;exitDy=0;entryX=0;entryY=0.5;entryDx=0;entryDy=0;" edge="1" parent="1" source="cJn1-5kdTX8YehVj2-MU-145" target="cJn1-5kdTX8YehVj2-MU-146">
          <mxGeometry width="50" height="50" relative="1" as="geometry">
            <mxPoint x="196.5" y="5026" as="sourcePoint" />
            <mxPoint x="398" y="5114" as="targetPoint" />
          </mxGeometry>
        </mxCell>
        <mxCell id="cJn1-5kdTX8YehVj2-MU-148" value="发送Kafka消息" style="rounded=0;html=1;whiteSpace=wrap;" vertex="1" parent="1">
          <mxGeometry x="393" y="5430" width="120" height="60" as="geometry" />
        </mxCell>
        <mxCell id="cJn1-5kdTX8YehVj2-MU-151" value="" style="endArrow=classic;html=1;exitX=1;exitY=0.5;exitDx=0;exitDy=0;entryX=0;entryY=0.5;entryDx=0;entryDy=0;" edge="1" parent="1" source="cJn1-5kdTX8YehVj2-MU-148" target="cJn1-5kdTX8YehVj2-MU-157">
          <mxGeometry width="50" height="50" relative="1" as="geometry">
            <mxPoint x="196.5" y="5470" as="sourcePoint" />
            <mxPoint x="633" y="5407" as="targetPoint" />
          </mxGeometry>
        </mxCell>
        <mxCell id="cJn1-5kdTX8YehVj2-MU-152" value="" style="endArrow=classic;html=1;exitX=1;exitY=0.5;exitDx=0;exitDy=0;entryX=0;entryY=0.5;entryDx=0;entryDy=0;" edge="1" parent="1" source="cJn1-5kdTX8YehVj2-MU-148" target="cJn1-5kdTX8YehVj2-MU-158">
          <mxGeometry width="50" height="50" relative="1" as="geometry">
            <mxPoint x="545" y="5521" as="sourcePoint" />
            <mxPoint x="647" y="5470" as="targetPoint" />
          </mxGeometry>
        </mxCell>
        <mxCell id="cJn1-5kdTX8YehVj2-MU-153" value="火山" style="text;html=1;strokeColor=none;fillColor=none;align=center;verticalAlign=middle;whiteSpace=wrap;rounded=0;" vertex="1" parent="1">
          <mxGeometry x="546" y="5408" width="40" height="20" as="geometry" />
        </mxCell>
        <mxCell id="cJn1-5kdTX8YehVj2-MU-154" value="火山海外版vigo" style="text;html=1;strokeColor=none;fillColor=none;align=center;verticalAlign=middle;whiteSpace=wrap;rounded=0;" vertex="1" parent="1">
          <mxGeometry x="555.75" y="5458" width="91" height="20" as="geometry" />
        </mxCell>
        <mxCell id="cJn1-5kdTX8YehVj2-MU-157" value="hotsoon_live_server_action" style="rounded=0;html=1;whiteSpace=wrap;" vertex="1" parent="1">
          <mxGeometry x="654" y="5396" width="163" height="28" as="geometry" />
        </mxCell>
        <mxCell id="cJn1-5kdTX8YehVj2-MU-158" value="hotsoon_live_server_action" style="rounded=0;html=1;whiteSpace=wrap;" vertex="1" parent="1">
          <mxGeometry x="654" y="5490" width="163" height="28" as="geometry" />
        </mxCell>
        <mxCell id="cJn1-5kdTX8YehVj2-MU-159" value="" style="endArrow=classic;html=1;entryX=0;entryY=0.5;entryDx=0;entryDy=0;exitX=1;exitY=0.5;exitDx=0;exitDy=0;" edge="1" parent="1" source="cJn1-5kdTX8YehVj2-MU-145" target="cJn1-5kdTX8YehVj2-MU-148">
          <mxGeometry width="50" height="50" relative="1" as="geometry">
            <mxPoint x="236" y="5505" as="sourcePoint" />
            <mxPoint x="401" y="5359" as="targetPoint" />
          </mxGeometry>
        </mxCell>
        <mxCell id="cJn1-5kdTX8YehVj2-MU-160" value="优化建议：仅火山和火山海外版需要发送消息，可以将检查前置" style="text;html=1;strokeColor=#d79b00;fillColor=#ffe6cc;align=center;verticalAlign=middle;whiteSpace=wrap;rounded=0;" vertex="1" parent="1">
          <mxGeometry x="650" y="5319" width="212" height="52" as="geometry" />
        </mxCell>
        <mxCell id="cJn1-5kdTX8YehVj2-MU-161" value="删除redis中Push记录&lt;br&gt;userID:anchorID" style="rounded=0;html=1;whiteSpace=wrap;" vertex="1" parent="1">
          <mxGeometry x="391" y="5545" width="120" height="60" as="geometry" />
        </mxCell>
        <mxCell id="cJn1-5kdTX8YehVj2-MU-162" value="" style="endArrow=classic;html=1;exitX=1;exitY=0.5;exitDx=0;exitDy=0;entryX=0;entryY=0.5;entryDx=0;entryDy=0;" edge="1" parent="1" source="cJn1-5kdTX8YehVj2-MU-145" target="cJn1-5kdTX8YehVj2-MU-161">
          <mxGeometry width="50" height="50" relative="1" as="geometry">
            <mxPoint x="196.5" y="5470" as="sourcePoint" />
            <mxPoint x="465" y="5554" as="targetPoint" />
          </mxGeometry>
        </mxCell>
        <mxCell id="cJn1-5kdTX8YehVj2-MU-163" value="从push触达用户" style="text;html=1;strokeColor=#6c8ebf;fillColor=#dae8fc;align=center;verticalAlign=middle;whiteSpace=wrap;rounded=0;" vertex="1" parent="1">
          <mxGeometry x="542.75" y="5543" width="117" height="72" as="geometry" />
        </mxCell>
        <mxCell id="cJn1-5kdTX8YehVj2-MU-164" value="记录roomID:userID进房关系" style="rounded=0;html=1;whiteSpace=wrap;" vertex="1" parent="1">
          <mxGeometry x="391" y="5650" width="120" height="60" as="geometry" />
        </mxCell>
        <mxCell id="cJn1-5kdTX8YehVj2-MU-165" value="" style="endArrow=classic;html=1;exitX=1;exitY=0.5;exitDx=0;exitDy=0;entryX=0;entryY=0.5;entryDx=0;entryDy=0;" edge="1" parent="1" source="cJn1-5kdTX8YehVj2-MU-145" target="cJn1-5kdTX8YehVj2-MU-164">
          <mxGeometry width="50" height="50" relative="1" as="geometry">
            <mxPoint x="196.5" y="5470" as="sourcePoint" />
            <mxPoint x="401" y="5585" as="targetPoint" />
          </mxGeometry>
        </mxCell>
        <mxCell id="cJn1-5kdTX8YehVj2-MU-166" value="仅火山" style="text;html=1;strokeColor=none;fillColor=none;align=center;verticalAlign=middle;whiteSpace=wrap;rounded=0;" vertex="1" parent="1">
          <mxGeometry x="309" y="5574" width="40" height="20" as="geometry" />
        </mxCell>
        <mxCell id="cJn1-5kdTX8YehVj2-MU-167" value="" style="endArrow=classic;html=1;exitX=0.5;exitY=1;exitDx=0;exitDy=0;entryX=0.5;entryY=0;entryDx=0;entryDy=0;" edge="1" parent="1" source="cJn1-5kdTX8YehVj2-MU-143" target="cJn1-5kdTX8YehVj2-MU-168">
          <mxGeometry width="50" height="50" relative="1" as="geometry">
            <mxPoint x="121" y="3604" as="sourcePoint" />
            <mxPoint x="124" y="3663" as="targetPoint" />
          </mxGeometry>
        </mxCell>
        <mxCell id="cJn1-5kdTX8YehVj2-MU-168" value="CallBackBeforeEnter" style="rounded=0;whiteSpace=wrap;html=1;fillColor=#f5f5f5;strokeColor=#666666;fontColor=#333333;" vertex="1" parent="1">
          <mxGeometry x="63.5" y="3590" width="120" height="60" as="geometry" />
        </mxCell>
        <mxCell id="cJn1-5kdTX8YehVj2-MU-169" value="CheckUserContext" style="rounded=0;whiteSpace=wrap;html=1;fillColor=#f8cecc;strokeColor=#b85450;" vertex="1" parent="1">
          <mxGeometry x="63.5" y="3755" width="120" height="60" as="geometry" />
        </mxCell>
        <mxCell id="cJn1-5kdTX8YehVj2-MU-170" value="Demotion" style="rounded=0;whiteSpace=wrap;html=1;fillColor=#f8cecc;strokeColor=#b85450;" vertex="1" parent="1">
          <mxGeometry x="63.5" y="3920" width="120" height="60" as="geometry" />
        </mxCell>
        <mxCell id="cJn1-5kdTX8YehVj2-MU-171" value="PackRoomData" style="rounded=0;whiteSpace=wrap;html=1;fillColor=#f8cecc;strokeColor=#b85450;" vertex="1" parent="1">
          <mxGeometry x="64.5" y="4226" width="120" height="60" as="geometry" />
        </mxCell>
        <mxCell id="cJn1-5kdTX8YehVj2-MU-172" value="PubEnterRoom.Do" style="rounded=0;whiteSpace=wrap;html=1;fillColor=#f8cecc;strokeColor=#b85450;" vertex="1" parent="1">
          <mxGeometry x="64.5" y="4662" width="120" height="60" as="geometry" />
        </mxCell>
        <mxCell id="cJn1-5kdTX8YehVj2-MU-173" value="GenExtra" style="rounded=0;whiteSpace=wrap;html=1;fillColor=#f8cecc;strokeColor=#b85450;" vertex="1" parent="1">
          <mxGeometry x="64" y="4910" width="120" height="60" as="geometry" />
        </mxCell>
        <mxCell id="cJn1-5kdTX8YehVj2-MU-174" value="DynamicPrintLog" style="rounded=0;whiteSpace=wrap;html=1;fillColor=#f5f5f5;strokeColor=#666666;fontColor=#333333;" vertex="1" parent="1">
          <mxGeometry x="64" y="5177" width="120" height="60" as="geometry" />
        </mxCell>
        <mxCell id="cJn1-5kdTX8YehVj2-MU-175" value="" style="endArrow=classic;html=1;entryX=0;entryY=0.5;entryDx=0;entryDy=0;exitX=1;exitY=0.5;exitDx=0;exitDy=0;" edge="1" parent="1" source="cJn1-5kdTX8YehVj2-MU-174" target="cJn1-5kdTX8YehVj2-MU-176">
          <mxGeometry width="50" height="50" relative="1" as="geometry">
            <mxPoint x="186.5" y="5211" as="sourcePoint" />
            <mxPoint x="401.5" y="5225" as="targetPoint" />
          </mxGeometry>
        </mxCell>
        <mxCell id="cJn1-5kdTX8YehVj2-MU-176" value="logs.CtxInfo:&lt;br&gt;parameter, roomData,opts" style="rounded=0;whiteSpace=wrap;html=1;" vertex="1" parent="1">
          <mxGeometry x="393" y="5177" width="120" height="60" as="geometry" />
        </mxCell>
        <mxCell id="cJn1-5kdTX8YehVj2-MU-177" value="" style="endArrow=classic;html=1;entryX=0.5;entryY=0;entryDx=0;entryDy=0;exitX=0.5;exitY=1;exitDx=0;exitDy=0;" edge="1" parent="1" source="cJn1-5kdTX8YehVj2-MU-174" target="cJn1-5kdTX8YehVj2-MU-145">
          <mxGeometry width="50" height="50" relative="1" as="geometry">
            <mxPoint x="196.5" y="5221" as="sourcePoint" />
            <mxPoint x="435.5" y="5220" as="targetPoint" />
          </mxGeometry>
        </mxCell>
        <mxCell id="cJn1-5kdTX8YehVj2-MU-178" value="" style="endArrow=classic;html=1;exitX=0.5;exitY=1;exitDx=0;exitDy=0;entryX=0.5;entryY=0;entryDx=0;entryDy=0;" edge="1" parent="1" source="cJn1-5kdTX8YehVj2-MU-168" target="cJn1-5kdTX8YehVj2-MU-169">
          <mxGeometry width="50" height="50" relative="1" as="geometry">
            <mxPoint x="133.5" y="3573" as="sourcePoint" />
            <mxPoint x="124" y="3815" as="targetPoint" />
          </mxGeometry>
        </mxCell>
        <mxCell id="cJn1-5kdTX8YehVj2-MU-179" value="CallBackAfterEnter" style="rounded=0;whiteSpace=wrap;html=1;fillColor=#f5f5f5;strokeColor=#666666;fontColor=#333333;" vertex="1" parent="1">
          <mxGeometry x="64" y="5090" width="120" height="60" as="geometry" />
        </mxCell>
        <mxCell id="cJn1-5kdTX8YehVj2-MU-180" value="" style="endArrow=classic;html=1;entryX=0.5;entryY=0;entryDx=0;entryDy=0;exitX=0.5;exitY=1;exitDx=0;exitDy=0;" edge="1" parent="1" source="cJn1-5kdTX8YehVj2-MU-179" target="cJn1-5kdTX8YehVj2-MU-174">
          <mxGeometry width="50" height="50" relative="1" as="geometry">
            <mxPoint x="196.5" y="5221" as="sourcePoint" />
            <mxPoint x="435.5" y="5220" as="targetPoint" />
          </mxGeometry>
        </mxCell>
        <mxCell id="cJn1-5kdTX8YehVj2-MU-181" value="" style="endArrow=classic;html=1;entryX=0.5;entryY=0;entryDx=0;entryDy=0;exitX=0.5;exitY=1;exitDx=0;exitDy=0;" edge="1" parent="1" source="cJn1-5kdTX8YehVj2-MU-173" target="cJn1-5kdTX8YehVj2-MU-179">
          <mxGeometry width="50" height="50" relative="1" as="geometry">
            <mxPoint x="138.5" y="5066" as="sourcePoint" />
            <mxPoint x="138.5" y="5095" as="targetPoint" />
          </mxGeometry>
        </mxCell>
        <mxCell id="cJn1-5kdTX8YehVj2-MU-182" value="" style="endArrow=classic;html=1;entryX=0.5;entryY=0;entryDx=0;entryDy=0;exitX=0.5;exitY=1;exitDx=0;exitDy=0;" edge="1" parent="1" source="cJn1-5kdTX8YehVj2-MU-172" target="cJn1-5kdTX8YehVj2-MU-173">
          <mxGeometry width="50" height="50" relative="1" as="geometry">
            <mxPoint x="139" y="4650" as="sourcePoint" />
            <mxPoint x="139" y="4676" as="targetPoint" />
          </mxGeometry>
        </mxCell>
        <mxCell id="cJn1-5kdTX8YehVj2-MU-183" value="" style="endArrow=classic;html=1;exitX=0.5;exitY=1;exitDx=0;exitDy=0;" edge="1" parent="1" source="cJn1-5kdTX8YehVj2-MU-169" target="cJn1-5kdTX8YehVj2-MU-170">
          <mxGeometry width="50" height="50" relative="1" as="geometry">
            <mxPoint x="133.5" y="3824" as="sourcePoint" />
            <mxPoint x="136" y="3879" as="targetPoint" />
          </mxGeometry>
        </mxCell>
        <mxCell id="cJn1-5kdTX8YehVj2-MU-185" value="" style="endArrow=classic;html=1;exitX=0.5;exitY=1;exitDx=0;exitDy=0;" edge="1" parent="1" source="cJn1-5kdTX8YehVj2-MU-171" target="cJn1-5kdTX8YehVj2-MU-172">
          <mxGeometry width="50" height="50" relative="1" as="geometry">
            <mxPoint x="133.5" y="4101" as="sourcePoint" />
            <mxPoint x="135.98507462686575" y="4138" as="targetPoint" />
          </mxGeometry>
        </mxCell>
        <mxCell id="cJn1-5kdTX8YehVj2-MU-186" value="" style="endArrow=classic;html=1;exitX=0.5;exitY=1;exitDx=0;exitDy=0;" edge="1" parent="1" source="cJn1-5kdTX8YehVj2-MU-170" target="cJn1-5kdTX8YehVj2-MU-171">
          <mxGeometry width="50" height="50" relative="1" as="geometry">
            <mxPoint x="123.5" y="4076" as="sourcePoint" />
            <mxPoint x="145.98507462686575" y="4148" as="targetPoint" />
          </mxGeometry>
        </mxCell>
        <mxCell id="cJn1-5kdTX8YehVj2-MU-187" value="LiveID,AppID检测" style="rounded=0;whiteSpace=wrap;html=1;fillColor=#f8cecc;strokeColor=#b85450;" vertex="1" parent="1">
          <mxGeometry x="315" y="3290" width="120" height="60" as="geometry" />
        </mxCell>
        <mxCell id="cJn1-5kdTX8YehVj2-MU-188" value="" style="endArrow=classic;html=1;exitX=1;exitY=0.5;exitDx=0;exitDy=0;entryX=0;entryY=0.5;entryDx=0;entryDy=0;" edge="1" parent="1" source="cJn1-5kdTX8YehVj2-MU-133" target="cJn1-5kdTX8YehVj2-MU-187">
          <mxGeometry width="50" height="50" relative="1" as="geometry">
            <mxPoint x="193.5" y="3405" as="sourcePoint" />
            <mxPoint x="330.5" y="3433" as="targetPoint" />
          </mxGeometry>
        </mxCell>
        <mxCell id="cJn1-5kdTX8YehVj2-MU-190" value="目前不含任何逻辑" style="text;html=1;strokeColor=#6c8ebf;fillColor=#dae8fc;align=center;verticalAlign=middle;whiteSpace=wrap;rounded=0;" vertex="1" parent="1">
          <mxGeometry x="211" y="3590" width="134.75" height="55" as="geometry" />
        </mxCell>
        <mxCell id="cJn1-5kdTX8YehVj2-MU-191" value="" style="endArrow=classic;html=1;exitX=1;exitY=0.5;exitDx=0;exitDy=0;entryX=0;entryY=0.5;entryDx=0;entryDy=0;" edge="1" parent="1" source="cJn1-5kdTX8YehVj2-MU-179" target="cJn1-5kdTX8YehVj2-MU-192">
          <mxGeometry width="50" height="50" relative="1" as="geometry">
            <mxPoint x="194" y="5217" as="sourcePoint" />
            <mxPoint x="403" y="5058" as="targetPoint" />
          </mxGeometry>
        </mxCell>
        <mxCell id="cJn1-5kdTX8YehVj2-MU-192" value="webcast.show.user::Ping" style="rounded=0;whiteSpace=wrap;html=1;fillColor=#f5f5f5;strokeColor=#666666;fontColor=#333333;" vertex="1" parent="1">
          <mxGeometry x="393" y="5090" width="146" height="60" as="geometry" />
        </mxCell>
        <mxCell id="cJn1-5kdTX8YehVj2-MU-193" value="DoCheckWithoutRpcCall" style="rounded=0;whiteSpace=wrap;html=1;fillColor=#f8cecc;strokeColor=#b85450;" vertex="1" parent="1">
          <mxGeometry x="363.67" y="3708" width="154.5" height="60" as="geometry" />
        </mxCell>
        <mxCell id="cJn1-5kdTX8YehVj2-MU-195" value="DoCheck" style="rounded=0;whiteSpace=wrap;html=1;fillColor=#f8cecc;strokeColor=#b85450;" vertex="1" parent="1">
          <mxGeometry x="365.5" y="3802" width="154.5" height="60" as="geometry" />
        </mxCell>
        <mxCell id="cJn1-5kdTX8YehVj2-MU-196" value="" style="endArrow=classic;html=1;exitX=1;exitY=0.5;exitDx=0;exitDy=0;entryX=0;entryY=0.5;entryDx=0;entryDy=0;" edge="1" parent="1" source="cJn1-5kdTX8YehVj2-MU-169" target="cJn1-5kdTX8YehVj2-MU-195">
          <mxGeometry width="50" height="50" relative="1" as="geometry">
            <mxPoint x="211" y="4017" as="sourcePoint" />
            <mxPoint x="420" y="4017" as="targetPoint" />
          </mxGeometry>
        </mxCell>
        <mxCell id="cJn1-5kdTX8YehVj2-MU-197" value="" style="endArrow=classic;html=1;exitX=1;exitY=0.5;exitDx=0;exitDy=0;entryX=0;entryY=0.5;entryDx=0;entryDy=0;" edge="1" parent="1" source="cJn1-5kdTX8YehVj2-MU-169">
          <mxGeometry width="50" height="50" relative="1" as="geometry">
            <mxPoint x="221" y="4027" as="sourcePoint" />
            <mxPoint x="363.6700000000001" y="3741" as="targetPoint" />
          </mxGeometry>
        </mxCell>
        <mxCell id="cJn1-5kdTX8YehVj2-MU-198" value="按值传参&lt;br&gt;优化建议：传引用" style="text;html=1;strokeColor=#d79b00;fillColor=#ffe6cc;align=center;verticalAlign=middle;whiteSpace=wrap;rounded=0;" vertex="1" parent="1">
          <mxGeometry x="377.5" y="3665" width="132.5" height="37" as="geometry" />
        </mxCell>
        <mxCell id="cJn1-5kdTX8YehVj2-MU-199" value="webcast.room.pack::PackRoom" style="rounded=0;whiteSpace=wrap;html=1;fillColor=#f8cecc;strokeColor=#b85450;" vertex="1" parent="1">
          <mxGeometry x="365.5" y="4187" width="180.5" height="60" as="geometry" />
        </mxCell>
        <mxCell id="cJn1-5kdTX8YehVj2-MU-200" value="" style="endArrow=classic;html=1;exitX=1;exitY=0.5;exitDx=0;exitDy=0;entryX=0;entryY=0.5;entryDx=0;entryDy=0;" edge="1" parent="1" source="cJn1-5kdTX8YehVj2-MU-171" target="cJn1-5kdTX8YehVj2-MU-199">
          <mxGeometry width="50" height="50" relative="1" as="geometry">
            <mxPoint x="194.5" y="4068" as="sourcePoint" />
            <mxPoint x="376.5" y="4115" as="targetPoint" />
          </mxGeometry>
        </mxCell>
        <mxCell id="cJn1-5kdTX8YehVj2-MU-201" value="CheckRoomData" style="rounded=0;whiteSpace=wrap;html=1;fillColor=#f8cecc;strokeColor=#b85450;" vertex="1" parent="1">
          <mxGeometry x="347.67" y="4361" width="180.5" height="60" as="geometry" />
        </mxCell>
        <mxCell id="cJn1-5kdTX8YehVj2-MU-202" value="" style="endArrow=classic;html=1;exitX=1;exitY=0.5;exitDx=0;exitDy=0;entryX=0;entryY=0.5;entryDx=0;entryDy=0;" edge="1" parent="1" source="cJn1-5kdTX8YehVj2-MU-171" target="cJn1-5kdTX8YehVj2-MU-201">
          <mxGeometry width="50" height="50" relative="1" as="geometry">
            <mxPoint x="194.5" y="4266" as="sourcePoint" />
            <mxPoint x="375.5" y="4227" as="targetPoint" />
          </mxGeometry>
        </mxCell>
        <mxCell id="cJn1-5kdTX8YehVj2-MU-203" value="DoCheckWithoutRpcCall" style="rounded=0;whiteSpace=wrap;html=1;fillColor=#f8cecc;strokeColor=#b85450;" vertex="1" parent="1">
          <mxGeometry x="656" y="4274" width="154.5" height="60" as="geometry" />
        </mxCell>
        <mxCell id="cJn1-5kdTX8YehVj2-MU-204" value="DoCheck" style="rounded=0;whiteSpace=wrap;html=1;fillColor=#f8cecc;strokeColor=#b85450;" vertex="1" parent="1">
          <mxGeometry x="653.9999999999999" y="4524" width="154.5" height="60" as="geometry" />
        </mxCell>
        <mxCell id="cJn1-5kdTX8YehVj2-MU-205" value="" style="endArrow=classic;html=1;exitX=1;exitY=0.5;exitDx=0;exitDy=0;entryX=0;entryY=0.5;entryDx=0;entryDy=0;" edge="1" parent="1" source="cJn1-5kdTX8YehVj2-MU-201" target="cJn1-5kdTX8YehVj2-MU-203">
          <mxGeometry width="50" height="50" relative="1" as="geometry">
            <mxPoint x="194.5" y="4266" as="sourcePoint" />
            <mxPoint x="376.5" y="4316" as="targetPoint" />
          </mxGeometry>
        </mxCell>
        <mxCell id="cJn1-5kdTX8YehVj2-MU-206" value="" style="endArrow=classic;html=1;exitX=1;exitY=0.5;exitDx=0;exitDy=0;entryX=0;entryY=0.5;entryDx=0;entryDy=0;" edge="1" parent="1" source="cJn1-5kdTX8YehVj2-MU-201" target="cJn1-5kdTX8YehVj2-MU-204">
          <mxGeometry width="50" height="50" relative="1" as="geometry">
            <mxPoint x="557" y="4316" as="sourcePoint" />
            <mxPoint x="695" y="4355" as="targetPoint" />
          </mxGeometry>
        </mxCell>
        <mxCell id="cJn1-5kdTX8YehVj2-MU-207" value="所有的checker执行完全并行，无依赖关系" style="text;html=1;strokeColor=#6c8ebf;fillColor=#dae8fc;align=center;verticalAlign=middle;whiteSpace=wrap;rounded=0;" vertex="1" parent="1">
          <mxGeometry x="995.63" y="3446.5" width="134.75" height="55" as="geometry" />
        </mxCell>
        <mxCell id="cJn1-5kdTX8YehVj2-MU-210" value="地区检查:&lt;br&gt;tcc_room_region_match&lt;br&gt;reqInfo.Region" style="rounded=0;whiteSpace=wrap;html=1;strokeColor=#b85450;dashed=1;fillColor=#f8cecc;" vertex="1" parent="1">
          <mxGeometry x="995.13" y="3537" width="155" height="60" as="geometry" />
        </mxCell>
        <mxCell id="cJn1-5kdTX8YehVj2-MU-211" value="按room_id配置，较少使用;包括黑白名单两种类型" style="text;html=1;strokeColor=#6c8ebf;fillColor=#dae8fc;align=center;verticalAlign=middle;whiteSpace=wrap;rounded=0;" vertex="1" parent="1">
          <mxGeometry x="1178" y="3539.5" width="134.75" height="55" as="geometry" />
        </mxCell>
        <mxCell id="cJn1-5kdTX8YehVj2-MU-212" value="roomID=&amp;gt;AppID白名单检查:&lt;br&gt;room_white_app_list&lt;br&gt;reqInfo.AppID" style="rounded=0;whiteSpace=wrap;html=1;strokeColor=#b85450;dashed=1;fillColor=#f8cecc;" vertex="1" parent="1">
          <mxGeometry x="995" y="3608" width="155" height="60" as="geometry" />
        </mxCell>
        <mxCell id="cJn1-5kdTX8YehVj2-MU-213" value="" style="endArrow=classic;html=1;exitX=1;exitY=0.5;exitDx=0;exitDy=0;entryX=0;entryY=0.5;entryDx=0;entryDy=0;" edge="1" parent="1" source="cJn1-5kdTX8YehVj2-MU-193" target="cJn1-5kdTX8YehVj2-MU-210">
          <mxGeometry width="50" height="50" relative="1" as="geometry">
            <mxPoint x="635.8299999999999" y="3789" as="sourcePoint" />
            <mxPoint x="816" y="3745" as="targetPoint" />
          </mxGeometry>
        </mxCell>
        <mxCell id="cJn1-5kdTX8YehVj2-MU-214" value="" style="endArrow=classic;html=1;entryX=0;entryY=0.5;entryDx=0;entryDy=0;exitX=1;exitY=0.5;exitDx=0;exitDy=0;" edge="1" parent="1" source="cJn1-5kdTX8YehVj2-MU-193" target="cJn1-5kdTX8YehVj2-MU-212">
          <mxGeometry width="50" height="50" relative="1" as="geometry">
            <mxPoint x="519" y="3740" as="sourcePoint" />
            <mxPoint x="1005.1300000000001" y="3577" as="targetPoint" />
          </mxGeometry>
        </mxCell>
        <mxCell id="cJn1-5kdTX8YehVj2-MU-215" value="目前所有的UserChecker都通过TCC完成，无RPC" style="text;html=1;strokeColor=#6c8ebf;fillColor=#dae8fc;align=center;verticalAlign=middle;whiteSpace=wrap;rounded=0;" vertex="1" parent="1">
          <mxGeometry x="525.25" y="3809" width="116.75" height="55" as="geometry" />
        </mxCell>
        <mxCell id="cJn1-5kdTX8YehVj2-MU-216" value="did!=0校验:&lt;br&gt;返回ServiceBusy" style="rounded=0;whiteSpace=wrap;html=1;fillColor=#f8cecc;strokeColor=#b85450;" vertex="1" parent="1">
          <mxGeometry x="995" y="3699" width="154.5" height="60" as="geometry" />
        </mxCell>
        <mxCell id="cJn1-5kdTX8YehVj2-MU-217" value="" style="endArrow=classic;html=1;entryX=0;entryY=0.5;entryDx=0;entryDy=0;exitX=1;exitY=0.5;exitDx=0;exitDy=0;" edge="1" parent="1" source="cJn1-5kdTX8YehVj2-MU-193" target="cJn1-5kdTX8YehVj2-MU-216">
          <mxGeometry width="50" height="50" relative="1" as="geometry">
            <mxPoint x="529" y="3750" as="sourcePoint" />
            <mxPoint x="1004.9999999999995" y="3648" as="targetPoint" />
          </mxGeometry>
        </mxCell>
        <mxCell id="cJn1-5kdTX8YehVj2-MU-218" value="roomID!=0校验" style="rounded=0;whiteSpace=wrap;html=1;fillColor=#f8cecc;strokeColor=#b85450;" vertex="1" parent="1">
          <mxGeometry x="995" y="3776" width="154.5" height="60" as="geometry" />
        </mxCell>
        <mxCell id="cJn1-5kdTX8YehVj2-MU-219" value="特殊房间可显检查:&lt;br&gt;special_room_config" style="rounded=0;whiteSpace=wrap;html=1;fillColor=#f8cecc;strokeColor=#b85450;dashed=1;" vertex="1" parent="1">
          <mxGeometry x="995.63" y="3862" width="154.5" height="60" as="geometry" />
        </mxCell>
        <mxCell id="cJn1-5kdTX8YehVj2-MU-220" value="" style="endArrow=classic;html=1;entryX=0;entryY=0.5;entryDx=0;entryDy=0;exitX=1;exitY=0.5;exitDx=0;exitDy=0;" edge="1" parent="1" source="cJn1-5kdTX8YehVj2-MU-193" target="cJn1-5kdTX8YehVj2-MU-218">
          <mxGeometry width="50" height="50" relative="1" as="geometry">
            <mxPoint x="528.1700000000001" y="3748" as="sourcePoint" />
            <mxPoint x="1004.9999999999995" y="3738.999999999999" as="targetPoint" />
          </mxGeometry>
        </mxCell>
        <mxCell id="cJn1-5kdTX8YehVj2-MU-221" value="" style="endArrow=classic;html=1;entryX=0;entryY=0.5;entryDx=0;entryDy=0;exitX=1;exitY=0.5;exitDx=0;exitDy=0;" edge="1" parent="1" source="cJn1-5kdTX8YehVj2-MU-193" target="cJn1-5kdTX8YehVj2-MU-219">
          <mxGeometry width="50" height="50" relative="1" as="geometry">
            <mxPoint x="528.1700000000001" y="3748" as="sourcePoint" />
            <mxPoint x="1004.9999999999995" y="3816" as="targetPoint" />
          </mxGeometry>
        </mxCell>
        <mxCell id="cJn1-5kdTX8YehVj2-MU-222" value="userID!=0校验" style="rounded=0;whiteSpace=wrap;html=1;fillColor=#f8cecc;strokeColor=#b85450;" vertex="1" parent="1">
          <mxGeometry x="995" y="3943" width="154.5" height="60" as="geometry" />
        </mxCell>
        <mxCell id="cJn1-5kdTX8YehVj2-MU-223" value="" style="endArrow=classic;html=1;entryX=0;entryY=0.5;entryDx=0;entryDy=0;exitX=1;exitY=0.5;exitDx=0;exitDy=0;" edge="1" parent="1" source="cJn1-5kdTX8YehVj2-MU-193" target="cJn1-5kdTX8YehVj2-MU-222">
          <mxGeometry width="50" height="50" relative="1" as="geometry">
            <mxPoint x="528.1700000000001" y="3748" as="sourcePoint" />
            <mxPoint x="1005.6300000000001" y="3902" as="targetPoint" />
          </mxGeometry>
        </mxCell>
        <mxCell id="cJn1-5kdTX8YehVj2-MU-225" value="员工内购" style="rounded=0;whiteSpace=wrap;html=1;fillColor=#f8cecc;strokeColor=#b85450;dashed=1;" vertex="1" parent="1">
          <mxGeometry x="995.63" y="4027" width="154.5" height="60" as="geometry" />
        </mxCell>
        <mxCell id="cJn1-5kdTX8YehVj2-MU-226" value="内购白名单TCC" style="rounded=0;whiteSpace=wrap;html=1;strokeColor=#b85450;dashed=1;fillColor=#f8cecc;" vertex="1" parent="1">
          <mxGeometry x="1242" y="4003" width="155" height="60" as="geometry" />
        </mxCell>
        <mxCell id="cJn1-5kdTX8YehVj2-MU-228" value="ecom.inner.welfare_sign_up" style="rounded=0;whiteSpace=wrap;html=1;fillColor=#f8cecc;strokeColor=#b85450;" vertex="1" parent="1">
          <mxGeometry x="1242" y="4084" width="154.5" height="60" as="geometry" />
        </mxCell>
        <mxCell id="cJn1-5kdTX8YehVj2-MU-229" value="" style="endArrow=classic;html=1;exitX=1;exitY=0.5;exitDx=0;exitDy=0;entryX=0;entryY=0.5;entryDx=0;entryDy=0;" edge="1" parent="1" source="cJn1-5kdTX8YehVj2-MU-193" target="cJn1-5kdTX8YehVj2-MU-225">
          <mxGeometry width="50" height="50" relative="1" as="geometry">
            <mxPoint x="528.1700000000001" y="3748" as="sourcePoint" />
            <mxPoint x="1004.9999999999995" y="3983" as="targetPoint" />
          </mxGeometry>
        </mxCell>
        <mxCell id="cJn1-5kdTX8YehVj2-MU-230" value="" style="endArrow=classic;html=1;exitX=1;exitY=0.5;exitDx=0;exitDy=0;entryX=0;entryY=0.5;entryDx=0;entryDy=0;" edge="1" parent="1" source="cJn1-5kdTX8YehVj2-MU-225" target="cJn1-5kdTX8YehVj2-MU-226">
          <mxGeometry width="50" height="50" relative="1" as="geometry">
            <mxPoint x="528.1700000000001" y="3748" as="sourcePoint" />
            <mxPoint x="1005.6300000000001" y="4067" as="targetPoint" />
          </mxGeometry>
        </mxCell>
        <mxCell id="cJn1-5kdTX8YehVj2-MU-231" value="" style="endArrow=classic;html=1;exitX=1;exitY=0.5;exitDx=0;exitDy=0;entryX=0;entryY=0.5;entryDx=0;entryDy=0;" edge="1" parent="1" source="cJn1-5kdTX8YehVj2-MU-225" target="cJn1-5kdTX8YehVj2-MU-228">
          <mxGeometry width="50" height="50" relative="1" as="geometry">
            <mxPoint x="1160.13" y="4067" as="sourcePoint" />
            <mxPoint x="1284" y="4046" as="targetPoint" />
          </mxGeometry>
        </mxCell>
        <mxCell id="cJn1-5kdTX8YehVj2-MU-232" value="这里使用了RPC" style="text;html=1;strokeColor=#d79b00;fillColor=#ffe6cc;align=center;verticalAlign=middle;whiteSpace=wrap;rounded=0;" vertex="1" parent="1">
          <mxGeometry x="1420" y="4102" width="132.5" height="37" as="geometry" />
        </mxCell>
        <mxCell id="cJn1-5kdTX8YehVj2-MU-233" value="room状态检查:&lt;br&gt;room.Status!=Prepare,Finish" style="rounded=0;whiteSpace=wrap;html=1;fillColor=#f8cecc;strokeColor=#b85450;" vertex="1" parent="1">
          <mxGeometry x="995.13" y="4141" width="154.5" height="60" as="geometry" />
        </mxCell>
        <mxCell id="cJn1-5kdTX8YehVj2-MU-234" value="" style="endArrow=classic;html=1;exitX=1;exitY=0.5;exitDx=0;exitDy=0;entryX=0;entryY=0.5;entryDx=0;entryDy=0;" edge="1" parent="1" source="cJn1-5kdTX8YehVj2-MU-203" target="cJn1-5kdTX8YehVj2-MU-233">
          <mxGeometry width="50" height="50" relative="1" as="geometry">
            <mxPoint x="557" y="4315.999999999999" as="sourcePoint" />
            <mxPoint x="701" y="4270.5" as="targetPoint" />
          </mxGeometry>
        </mxCell>
        <mxCell id="cJn1-5kdTX8YehVj2-MU-235" value="room资料卡检查:&lt;br&gt;room.RoomAuth.UserCard=false" style="rounded=0;whiteSpace=wrap;html=1;fillColor=#f8cecc;strokeColor=#b85450;" vertex="1" parent="1">
          <mxGeometry x="995" y="4216" width="154.5" height="60" as="geometry" />
        </mxCell>
        <mxCell id="cJn1-5kdTX8YehVj2-MU-236" value="tcc:user_card_check_platform&lt;br&gt;版本控制" style="rounded=0;whiteSpace=wrap;html=1;dashed=1;" vertex="1" parent="1">
          <mxGeometry x="1242" y="4216" width="173" height="60" as="geometry" />
        </mxCell>
        <mxCell id="cJn1-5kdTX8YehVj2-MU-237" value="" style="endArrow=classic;html=1;exitX=1;exitY=0.5;exitDx=0;exitDy=0;" edge="1" parent="1" source="cJn1-5kdTX8YehVj2-MU-235" target="cJn1-5kdTX8YehVj2-MU-236">
          <mxGeometry width="50" height="50" relative="1" as="geometry">
            <mxPoint x="1160.13" y="4067.000000000001" as="sourcePoint" />
            <mxPoint x="1284" y="4117.000000000001" as="targetPoint" />
          </mxGeometry>
        </mxCell>
        <mxCell id="cJn1-5kdTX8YehVj2-MU-238" value="" style="endArrow=classic;html=1;exitX=1;exitY=0.5;exitDx=0;exitDy=0;entryX=0;entryY=0.5;entryDx=0;entryDy=0;" edge="1" parent="1" source="cJn1-5kdTX8YehVj2-MU-203" target="cJn1-5kdTX8YehVj2-MU-235">
          <mxGeometry width="50" height="50" relative="1" as="geometry">
            <mxPoint x="855.5" y="4270.5" as="sourcePoint" />
            <mxPoint x="1005.1300000000001" y="4222.000000000001" as="targetPoint" />
          </mxGeometry>
        </mxCell>
        <mxCell id="cJn1-5kdTX8YehVj2-MU-239" value="沙盒直播间检查" style="rounded=0;whiteSpace=wrap;html=1;fillColor=#f8cecc;strokeColor=#b85450;" vertex="1" parent="1">
          <mxGeometry x="995.63" y="4770" width="154.5" height="60" as="geometry" />
        </mxCell>
        <mxCell id="cJn1-5kdTX8YehVj2-MU-240" value="live.room.config白名单" style="rounded=0;whiteSpace=wrap;html=1;fillColor=#f8cecc;strokeColor=#b85450;" vertex="1" parent="1">
          <mxGeometry x="1240" y="4770" width="154.5" height="60" as="geometry" />
        </mxCell>
        <mxCell id="cJn1-5kdTX8YehVj2-MU-241" value="" style="endArrow=classic;html=1;exitX=1;exitY=0.5;exitDx=0;exitDy=0;entryX=0;entryY=0.5;entryDx=0;entryDy=0;" edge="1" parent="1" source="cJn1-5kdTX8YehVj2-MU-239" target="cJn1-5kdTX8YehVj2-MU-240">
          <mxGeometry width="50" height="50" relative="1" as="geometry">
            <mxPoint x="1169.3700000000003" y="4838" as="sourcePoint" />
            <mxPoint x="1274.87" y="4838" as="targetPoint" />
          </mxGeometry>
        </mxCell>
        <mxCell id="cJn1-5kdTX8YehVj2-MU-242" value="" style="endArrow=classic;html=1;exitX=1;exitY=0.5;exitDx=0;exitDy=0;entryX=0;entryY=0.5;entryDx=0;entryDy=0;" edge="1" parent="1" source="cJn1-5kdTX8YehVj2-MU-204" target="cJn1-5kdTX8YehVj2-MU-239">
          <mxGeometry width="50" height="50" relative="1" as="geometry">
            <mxPoint x="855.5" y="4270.5" as="sourcePoint" />
            <mxPoint x="1008" y="4295" as="targetPoint" />
          </mxGeometry>
        </mxCell>
        <mxCell id="cJn1-5kdTX8YehVj2-MU-243" value="room.filter" style="rounded=0;whiteSpace=wrap;html=1;fillColor=#f8cecc;strokeColor=#b85450;" vertex="1" parent="1">
          <mxGeometry x="995" y="4855" width="154.5" height="60" as="geometry" />
        </mxCell>
        <mxCell id="cJn1-5kdTX8YehVj2-MU-244" value="" style="endArrow=classic;html=1;exitX=1;exitY=0.5;exitDx=0;exitDy=0;entryX=0;entryY=0.5;entryDx=0;entryDy=0;" edge="1" parent="1" source="cJn1-5kdTX8YehVj2-MU-204" target="cJn1-5kdTX8YehVj2-MU-243">
          <mxGeometry width="50" height="50" relative="1" as="geometry">
            <mxPoint x="858.25" y="4355" as="sourcePoint" />
            <mxPoint x="1005.1300000000001" y="4495" as="targetPoint" />
          </mxGeometry>
        </mxCell>
        <mxCell id="cJn1-5kdTX8YehVj2-MU-246" value="很多filter规则" style="text;html=1;strokeColor=#6c8ebf;fillColor=#dae8fc;align=center;verticalAlign=middle;whiteSpace=wrap;rounded=0;" vertex="1" parent="1">
          <mxGeometry x="1162" y="4857.5" width="116.75" height="55" as="geometry" />
        </mxCell>
        <mxCell id="cJn1-5kdTX8YehVj2-MU-247" value="roomData!=nil" style="rounded=0;whiteSpace=wrap;html=1;fillColor=#f8cecc;strokeColor=#b85450;" vertex="1" parent="1">
          <mxGeometry x="995" y="4290.5" width="154.5" height="60" as="geometry" />
        </mxCell>
        <mxCell id="cJn1-5kdTX8YehVj2-MU-248" value="" style="endArrow=classic;html=1;exitX=1;exitY=0.5;exitDx=0;exitDy=0;entryX=0;entryY=0.5;entryDx=0;entryDy=0;" edge="1" parent="1" source="cJn1-5kdTX8YehVj2-MU-203" target="cJn1-5kdTX8YehVj2-MU-247">
          <mxGeometry width="50" height="50" relative="1" as="geometry">
            <mxPoint x="855.5" y="4270.5" as="sourcePoint" />
            <mxPoint x="1008" y="4295" as="targetPoint" />
          </mxGeometry>
        </mxCell>
        <mxCell id="cJn1-5kdTX8YehVj2-MU-249" value="PPE泳道检测" style="rounded=0;whiteSpace=wrap;html=1;fillColor=#f8cecc;strokeColor=#b85450;dashed=1;" vertex="1" parent="1">
          <mxGeometry x="995" y="4367" width="154.5" height="60" as="geometry" />
        </mxCell>
        <mxCell id="cJn1-5kdTX8YehVj2-MU-250" value="" style="endArrow=classic;html=1;exitX=1;exitY=0.5;exitDx=0;exitDy=0;entryX=0;entryY=0.5;entryDx=0;entryDy=0;" edge="1" parent="1" source="cJn1-5kdTX8YehVj2-MU-203" target="cJn1-5kdTX8YehVj2-MU-249">
          <mxGeometry width="50" height="50" relative="1" as="geometry">
            <mxPoint x="855.5" y="4270.5" as="sourcePoint" />
            <mxPoint x="1008" y="4368" as="targetPoint" />
          </mxGeometry>
        </mxCell>
        <mxCell id="cJn1-5kdTX8YehVj2-MU-251" value="UserLiveID和RoomLiveID匹配，除了抖火互通，其他禁止" style="rounded=0;whiteSpace=wrap;html=1;fillColor=#f8cecc;strokeColor=#b85450;" vertex="1" parent="1">
          <mxGeometry x="995" y="4440" width="154.5" height="60" as="geometry" />
        </mxCell>
        <mxCell id="cJn1-5kdTX8YehVj2-MU-252" value="" style="endArrow=classic;html=1;exitX=1;exitY=0.5;exitDx=0;exitDy=0;entryX=0;entryY=0.5;entryDx=0;entryDy=0;" edge="1" parent="1" source="cJn1-5kdTX8YehVj2-MU-203" target="cJn1-5kdTX8YehVj2-MU-251">
          <mxGeometry width="50" height="50" relative="1" as="geometry">
            <mxPoint x="855.5" y="4270.5" as="sourcePoint" />
            <mxPoint x="1008" y="4449" as="targetPoint" />
          </mxGeometry>
        </mxCell>
        <mxCell id="cJn1-5kdTX8YehVj2-MU-253" value="webcast.room.enter_service" style="rounded=0;whiteSpace=wrap;html=1;fillColor=#f8cecc;strokeColor=#b85450;" vertex="1" parent="1">
          <mxGeometry x="1242" y="4940" width="154.5" height="60" as="geometry" />
        </mxCell>
        <mxCell id="cJn1-5kdTX8YehVj2-MU-254" value="进房校验" style="rounded=0;whiteSpace=wrap;html=1;fillColor=#f8cecc;strokeColor=#b85450;" vertex="1" parent="1">
          <mxGeometry x="995.63" y="4940" width="154.5" height="60" as="geometry" />
        </mxCell>
        <mxCell id="cJn1-5kdTX8YehVj2-MU-255" value="" style="endArrow=classic;html=1;exitX=1;exitY=0.5;exitDx=0;exitDy=0;entryX=0;entryY=0.5;entryDx=0;entryDy=0;" edge="1" parent="1" source="cJn1-5kdTX8YehVj2-MU-204" target="cJn1-5kdTX8YehVj2-MU-254">
          <mxGeometry width="50" height="50" relative="1" as="geometry">
            <mxPoint x="858.25" y="4355" as="sourcePoint" />
            <mxPoint x="1010.8700000000003" y="4890" as="targetPoint" />
          </mxGeometry>
        </mxCell>
        <mxCell id="cJn1-5kdTX8YehVj2-MU-256" value="" style="endArrow=classic;html=1;exitX=1;exitY=0.5;exitDx=0;exitDy=0;entryX=0;entryY=0.5;entryDx=0;entryDy=0;" edge="1" parent="1" source="cJn1-5kdTX8YehVj2-MU-254" target="cJn1-5kdTX8YehVj2-MU-253">
          <mxGeometry width="50" height="50" relative="1" as="geometry">
            <mxPoint x="1166.5000000000005" y="5038" as="sourcePoint" />
            <mxPoint x="1291.37" y="5038" as="targetPoint" />
          </mxGeometry>
        </mxCell>
        <mxCell id="cJn1-5kdTX8YehVj2-MU-257" value="熟人房人数上限检查:&lt;br&gt;roomData.LinkerMap" style="rounded=0;whiteSpace=wrap;html=1;fillColor=#f8cecc;strokeColor=#b85450;" vertex="1" parent="1">
          <mxGeometry x="995" y="4517" width="154.5" height="60" as="geometry" />
        </mxCell>
        <mxCell id="cJn1-5kdTX8YehVj2-MU-258" value="" style="endArrow=classic;html=1;exitX=1;exitY=0.5;exitDx=0;exitDy=0;entryX=0;entryY=0.5;entryDx=0;entryDy=0;" edge="1" parent="1" source="cJn1-5kdTX8YehVj2-MU-203" target="cJn1-5kdTX8YehVj2-MU-257">
          <mxGeometry width="50" height="50" relative="1" as="geometry">
            <mxPoint x="855.5" y="4270.5" as="sourcePoint" />
            <mxPoint x="1008" y="4530" as="targetPoint" />
          </mxGeometry>
        </mxCell>
        <mxCell id="cJn1-5kdTX8YehVj2-MU-259" value="熟人房拉黑关系校验" style="rounded=0;whiteSpace=wrap;html=1;fillColor=#f8cecc;strokeColor=#b85450;" vertex="1" parent="1">
          <mxGeometry x="995" y="4590" width="154.5" height="60" as="geometry" />
        </mxCell>
        <mxCell id="cJn1-5kdTX8YehVj2-MU-260" value="webcast.linkmic.online_linkmic" style="rounded=0;whiteSpace=wrap;html=1;fillColor=#f8cecc;strokeColor=#b85450;" vertex="1" parent="1">
          <mxGeometry x="1240" y="4547" width="154.5" height="60" as="geometry" />
        </mxCell>
        <mxCell id="cJn1-5kdTX8YehVj2-MU-261" value="这里使用了RPC" style="text;html=1;strokeColor=#d79b00;fillColor=#ffe6cc;align=center;verticalAlign=middle;whiteSpace=wrap;rounded=0;" vertex="1" parent="1">
          <mxGeometry x="1420" y="4561.5" width="132.5" height="37" as="geometry" />
        </mxCell>
        <mxCell id="cJn1-5kdTX8YehVj2-MU-263" value="" style="endArrow=classic;html=1;exitX=1;exitY=0.5;exitDx=0;exitDy=0;entryX=0;entryY=0.5;entryDx=0;entryDy=0;" edge="1" parent="1" source="cJn1-5kdTX8YehVj2-MU-259" target="cJn1-5kdTX8YehVj2-MU-260">
          <mxGeometry width="50" height="50" relative="1" as="geometry">
            <mxPoint x="1166.5" y="5010" as="sourcePoint" />
            <mxPoint x="1291.37" y="5010" as="targetPoint" />
          </mxGeometry>
        </mxCell>
        <mxCell id="cJn1-5kdTX8YehVj2-MU-264" value="LiveRoomID=5" style="text;html=1;strokeColor=none;fillColor=none;align=center;verticalAlign=middle;whiteSpace=wrap;rounded=0;dashed=1;" vertex="1" parent="1">
          <mxGeometry x="933" y="4483" width="40" height="20" as="geometry" />
        </mxCell>
        <mxCell id="cJn1-5kdTX8YehVj2-MU-265" value="" style="endArrow=classic;html=1;entryX=0;entryY=0.5;entryDx=0;entryDy=0;exitX=1;exitY=0.5;exitDx=0;exitDy=0;" edge="1" parent="1" source="cJn1-5kdTX8YehVj2-MU-203" target="cJn1-5kdTX8YehVj2-MU-259">
          <mxGeometry width="50" height="50" relative="1" as="geometry">
            <mxPoint x="773" y="4288" as="sourcePoint" />
            <mxPoint x="1008" y="4654" as="targetPoint" />
          </mxGeometry>
        </mxCell>
        <mxCell id="cJn1-5kdTX8YehVj2-MU-266" value="webcast.user.relation" style="rounded=0;whiteSpace=wrap;html=1;fillColor=#f8cecc;strokeColor=#b85450;" vertex="1" parent="1">
          <mxGeometry x="1240" y="4646" width="154.5" height="60" as="geometry" />
        </mxCell>
        <mxCell id="cJn1-5kdTX8YehVj2-MU-267" value="" style="endArrow=classic;html=1;exitX=1;exitY=0.5;exitDx=0;exitDy=0;entryX=0;entryY=0.5;entryDx=0;entryDy=0;" edge="1" parent="1" source="cJn1-5kdTX8YehVj2-MU-259" target="cJn1-5kdTX8YehVj2-MU-266">
          <mxGeometry width="50" height="50" relative="1" as="geometry">
            <mxPoint x="1160.13" y="4738" as="sourcePoint" />
            <mxPoint x="1252" y="4705" as="targetPoint" />
          </mxGeometry>
        </mxCell>
        <mxCell id="cJn1-5kdTX8YehVj2-MU-268" value="必须至少和主播是关注关系(任意向),或者关注了房间中的一个人" style="text;html=1;strokeColor=#6c8ebf;fillColor=#dae8fc;align=center;verticalAlign=middle;whiteSpace=wrap;rounded=0;" vertex="1" parent="1">
          <mxGeometry x="1430" y="4634" width="117" height="72" as="geometry" />
        </mxCell>
        <mxCell id="cJn1-5kdTX8YehVj2-MU-269" value="room.LiveRoomMode=6,7时，param.LiveRoomMode必须等于room.LiveRoomMODE" style="rounded=0;whiteSpace=wrap;html=1;fillColor=#f8cecc;strokeColor=#b85450;" vertex="1" parent="1">
          <mxGeometry x="995.13" y="4665" width="154.5" height="60" as="geometry" />
        </mxCell>
        <mxCell id="cJn1-5kdTX8YehVj2-MU-270" value="" style="endArrow=classic;html=1;entryX=0;entryY=0.5;entryDx=0;entryDy=0;exitX=1;exitY=0.5;exitDx=0;exitDy=0;" edge="1" parent="1" source="cJn1-5kdTX8YehVj2-MU-203" target="cJn1-5kdTX8YehVj2-MU-269">
          <mxGeometry width="50" height="50" relative="1" as="geometry">
            <mxPoint x="849" y="4256" as="sourcePoint" />
            <mxPoint x="1005.6300000000001" y="4738" as="targetPoint" />
          </mxGeometry>
        </mxCell>
        <mxCell id="cJn1-5kdTX8YehVj2-MU-272" value="shark.CheckSpam" style="rounded=0;whiteSpace=wrap;html=1;fillColor=#f8cecc;strokeColor=#b85450;" vertex="1" parent="1">
          <mxGeometry x="291" y="4590" width="180.5" height="60" as="geometry" />
        </mxCell>
        <mxCell id="cJn1-5kdTX8YehVj2-MU-273" value="IgnoreRoomUserRelation则跳过" style="text;html=1;strokeColor=#6c8ebf;fillColor=#dae8fc;align=center;verticalAlign=middle;whiteSpace=wrap;rounded=0;" vertex="1" parent="1">
          <mxGeometry x="-147" y="4665" width="197.25" height="55" as="geometry" />
        </mxCell>
        <mxCell id="cJn1-5kdTX8YehVj2-MU-274" value="根据decision，进行文本验证，滑动验证等" style="text;html=1;strokeColor=#6c8ebf;fillColor=#dae8fc;align=center;verticalAlign=middle;whiteSpace=wrap;rounded=0;" vertex="1" parent="1">
          <mxGeometry x="491.5" y="4592.5" width="116.75" height="55" as="geometry" />
        </mxCell>
        <mxCell id="cJn1-5kdTX8YehVj2-MU-275" value="" style="endArrow=classic;html=1;exitX=1;exitY=0.5;exitDx=0;exitDy=0;entryX=0;entryY=0.5;entryDx=0;entryDy=0;" edge="1" parent="1" source="cJn1-5kdTX8YehVj2-MU-172" target="cJn1-5kdTX8YehVj2-MU-272">
          <mxGeometry width="50" height="50" relative="1" as="geometry">
            <mxPoint x="194.5" y="4266.000000000001" as="sourcePoint" />
            <mxPoint x="357.6700000000001" y="4401" as="targetPoint" />
          </mxGeometry>
        </mxCell>
        <mxCell id="cJn1-5kdTX8YehVj2-MU-276" value="白名单sdk,读取tcc live.room.config" style="rounded=0;whiteSpace=wrap;html=1;fillColor=#f8cecc;strokeColor=#b85450;" vertex="1" parent="1">
          <mxGeometry x="291" y="4665" width="180.5" height="60" as="geometry" />
        </mxCell>
        <mxCell id="cJn1-5kdTX8YehVj2-MU-277" value="" style="endArrow=classic;html=1;entryX=0;entryY=0.5;entryDx=0;entryDy=0;exitX=1;exitY=0.5;exitDx=0;exitDy=0;" edge="1" parent="1" source="cJn1-5kdTX8YehVj2-MU-172" target="cJn1-5kdTX8YehVj2-MU-276">
          <mxGeometry width="50" height="50" relative="1" as="geometry">
            <mxPoint x="177" y="4692" as="sourcePoint" />
            <mxPoint x="303" y="4702" as="targetPoint" />
          </mxGeometry>
        </mxCell>
        <mxCell id="cJn1-5kdTX8YehVj2-MU-278" value="webcast.room.user::EnterRoom" style="rounded=0;whiteSpace=wrap;html=1;fillColor=#f8cecc;strokeColor=#b85450;" vertex="1" parent="1">
          <mxGeometry x="291" y="4740" width="174.25" height="60" as="geometry" />
        </mxCell>
        <mxCell id="cJn1-5kdTX8YehVj2-MU-279" value="" style="endArrow=classic;html=1;entryX=0;entryY=0.5;entryDx=0;entryDy=0;exitX=1;exitY=0.5;exitDx=0;exitDy=0;" edge="1" parent="1" source="cJn1-5kdTX8YehVj2-MU-172" target="cJn1-5kdTX8YehVj2-MU-278">
          <mxGeometry width="50" height="50" relative="1" as="geometry">
            <mxPoint x="194.5" y="4702" as="sourcePoint" />
            <mxPoint x="303" y="4754" as="targetPoint" />
          </mxGeometry>
        </mxCell>
        <mxCell id="cJn1-5kdTX8YehVj2-MU-280" value="这里对错误的处理比较特殊，对于ServiceUnavailable,ServiceInternalError，不视为错误；其他错误才视为错误" style="text;html=1;strokeColor=#6c8ebf;fillColor=#dae8fc;align=center;verticalAlign=middle;whiteSpace=wrap;rounded=0;" vertex="1" parent="1">
          <mxGeometry x="490" y="4745" width="310" height="55" as="geometry" />
        </mxCell>
        <mxCell id="cJn1-5kdTX8YehVj2-MU-281" value="问题：RPC超时返回什么错误？" style="text;html=1;strokeColor=#d79b00;fillColor=#ffe6cc;align=center;verticalAlign=middle;whiteSpace=wrap;rounded=0;dashed=1;" vertex="1" parent="1">
          <mxGeometry x="505" y="4807" width="280" height="20" as="geometry" />
        </mxCell>
        <mxCell id="cJn1-5kdTX8YehVj2-MU-282" value="toutiao.luckycat.aweme_rpc::GetTreasureStatus" style="rounded=0;whiteSpace=wrap;html=1;fillColor=#f5f5f5;strokeColor=#666666;fontColor=#333333;dashed=1;" vertex="1" parent="1">
          <mxGeometry x="387" y="4874" width="263" height="52" as="geometry" />
        </mxCell>
        <mxCell id="cJn1-5kdTX8YehVj2-MU-283" value="仅抖音Lite首次进房" style="text;html=1;strokeColor=none;fillColor=none;align=center;verticalAlign=middle;whiteSpace=wrap;rounded=0;dashed=1;" vertex="1" parent="1">
          <mxGeometry x="221" y="4883" width="128" height="20" as="geometry" />
        </mxCell>
        <mxCell id="cJn1-5kdTX8YehVj2-MU-284" value="" style="endArrow=classic;html=1;entryX=0;entryY=0.5;entryDx=0;entryDy=0;exitX=1;exitY=0.5;exitDx=0;exitDy=0;" edge="1" parent="1" source="cJn1-5kdTX8YehVj2-MU-173" target="cJn1-5kdTX8YehVj2-MU-282">
          <mxGeometry width="50" height="50" relative="1" as="geometry">
            <mxPoint x="194.5" y="4702" as="sourcePoint" />
            <mxPoint x="301" y="4780" as="targetPoint" />
          </mxGeometry>
        </mxCell>
        <mxCell id="cJn1-5kdTX8YehVj2-MU-287" value="webcast.im.manager::EnterMessage" style="rounded=0;whiteSpace=wrap;html=1;fillColor=#f5f5f5;strokeColor=#666666;fontColor=#333333;" vertex="1" parent="1">
          <mxGeometry x="387" y="4992" width="263" height="52" as="geometry" />
        </mxCell>
        <mxCell id="cJn1-5kdTX8YehVj2-MU-288" value="" style="endArrow=classic;html=1;entryX=0;entryY=0.5;entryDx=0;entryDy=0;exitX=1;exitY=0.5;exitDx=0;exitDy=0;" edge="1" parent="1" source="cJn1-5kdTX8YehVj2-MU-173" target="cJn1-5kdTX8YehVj2-MU-287">
          <mxGeometry width="50" height="50" relative="1" as="geometry">
            <mxPoint x="194" y="4950" as="sourcePoint" />
            <mxPoint x="397" y="4950" as="targetPoint" />
          </mxGeometry>
        </mxCell>
        <mxCell id="cJn1-5kdTX8YehVj2-MU-289" value="实际上GenExtra全是弱依赖" style="text;html=1;strokeColor=#6c8ebf;fillColor=#dae8fc;align=center;verticalAlign=middle;whiteSpace=wrap;rounded=0;" vertex="1" parent="1">
          <mxGeometry x="654" y="4930" width="197.25" height="55" as="geometry" />
        </mxCell>
      </root>
    </mxGraphModel>
  </diagram>
</mxfile>
